<svg width="20" height="20" viewBox="0 0 20 20" fill="none" xmlns="http://www.w3.org/2000/svg">
<path d="M6.87508 14L10.0001 10.875L13.1251 14L14.0001 13.125L10.8751 10L14.0001 6.875L13.1251 6L10.0001 9.125L6.87508 6L6.00008 6.875L9.12508 10L6.00008 13.125L6.87508 14ZM10.0001 18.3333C8.86119 18.3333 7.7848 18.1146 6.77091 17.6771C5.75703 17.2396 4.87161 16.6424 4.11466 15.8854C3.35772 15.1285 2.7605 14.2431 2.323 13.2292C1.8855 12.2153 1.66675 11.1389 1.66675 10C1.66675 8.84722 1.8855 7.76389 2.323 6.75C2.7605 5.73611 3.35772 4.85416 4.11466 4.10416C4.87161 3.35416 5.75703 2.76041 6.77091 2.32291C7.7848 1.88541 8.86119 1.66666 10.0001 1.66666C11.1529 1.66666 12.2362 1.88541 13.2501 2.32291C14.264 2.76041 15.1459 3.35416 15.8959 4.10416C16.6459 4.85416 17.2397 5.73611 17.6772 6.75C18.1147 7.76389 18.3334 8.84722 18.3334 10C18.3334 11.1389 18.1147 12.2153 17.6772 13.2292C17.2397 14.2431 16.6459 15.1285 15.8959 15.8854C15.1459 16.6424 14.264 17.2396 13.2501 17.6771C12.2362 18.1146 11.1529 18.3333 10.0001 18.3333ZM10.0001 17.0833C11.9723 17.0833 13.6459 16.3924 15.0209 15.0104C16.3959 13.6285 17.0834 11.9583 17.0834 10C17.0834 8.02777 16.3959 6.35416 15.0209 4.97916C13.6459 3.60416 11.9723 2.91666 10.0001 2.91666C8.04175 2.91666 6.37161 3.60416 4.98966 4.97916C3.60772 6.35416 2.91675 8.02777 2.91675 10C2.91675 11.9583 3.60772 13.6285 4.98966 15.0104C6.37161 16.3924 8.04175 17.0833 10.0001 17.0833Z" fill="white"/>
</svg>
