<svg width="21" height="21" viewBox="0 0 21 21" fill="none" xmlns="http://www.w3.org/2000/svg">
<path d="M4.49644 17.9571C4.16177 17.9571 3.86895 17.8316 3.61795 17.5806C3.36695 17.3296 3.24146 17.0368 3.24146 16.7021V4.15232C3.24146 3.81766 3.36695 3.52483 3.61795 3.27383C3.86895 3.02284 4.16177 2.89734 4.49644 2.89734H17.0462C17.3809 2.89734 17.6737 3.02284 17.9247 3.27383C18.1757 3.52483 18.3012 3.81766 18.3012 4.15232V16.7021C18.3012 17.0368 18.1757 17.3296 17.9247 17.5806C17.6737 17.8316 17.3809 17.9571 17.0462 17.9571H4.49644ZM4.49644 16.7021H17.0462V4.15232H4.49644V16.7021Z" fill="#2E2E2E"/>
</svg>
