<svg width="19" height="19" viewBox="0 0 19 19" fill="none" xmlns="http://www.w3.org/2000/svg">
<path d="M8.48772 12.8578L13.978 7.36757L13.1611 6.55069L8.48772 11.224L6.22703 8.96336L5.41014 9.78025L8.48772 12.8578ZM3.94734 16.6763C3.64338 16.6763 3.37742 16.5623 3.14945 16.3344C2.92148 16.1064 2.8075 15.8404 2.8075 15.5365V4.13801C2.8075 3.83406 2.92148 3.56809 3.14945 3.34012C3.37742 3.11215 3.64338 2.99817 3.94734 2.99817H15.3458C15.6497 2.99817 15.9157 3.11215 16.1437 3.34012C16.3716 3.56809 16.4856 3.83406 16.4856 4.13801V15.5365C16.4856 15.8404 16.3716 16.1064 16.1437 16.3344C15.9157 16.5623 15.6497 16.6763 15.3458 16.6763H3.94734ZM3.94734 15.5365H15.3458V4.13801H3.94734V15.5365Z" fill="#FF2C06"/>
</svg>
