<svg width="21" height="21" viewBox="0 0 21 21" fill="none" xmlns="http://www.w3.org/2000/svg">
<path d="M9.49471 14.1681L15.5395 8.12326L14.6401 7.22386L9.49471 12.3693L7.00566 9.88023L6.10626 10.7796L9.49471 14.1681ZM4.4957 18.3723C4.16104 18.3723 3.86821 18.2468 3.61722 17.9958C3.36622 17.7448 3.24072 17.4519 3.24072 17.1173V4.56748C3.24072 4.23282 3.36622 3.93999 3.61722 3.68899C3.86821 3.438 4.16104 3.3125 4.4957 3.3125H17.0455C17.3802 3.3125 17.673 3.438 17.924 3.68899C18.175 3.93999 18.3005 4.23282 18.3005 4.56748V17.1173C18.3005 17.4519 18.175 17.7448 17.924 17.9958C17.673 18.2468 17.3802 18.3723 17.0455 18.3723H4.4957ZM4.4957 17.1173H17.0455V4.56748H4.4957V17.1173Z" fill="#FF2C06"/>
</svg>
