<svg width="21" height="21" viewBox="0 0 21 21" fill="none" xmlns="http://www.w3.org/2000/svg">
<path d="M9.49471 13.7529L15.5395 7.7081L14.6401 6.8087L9.49471 11.9541L7.00566 9.46507L6.10626 10.3645L9.49471 13.7529ZM4.4957 17.9571C4.16104 17.9571 3.86821 17.8316 3.61722 17.5806C3.36622 17.3296 3.24072 17.0368 3.24072 16.7021V4.15232C3.24072 3.81766 3.36622 3.52483 3.61722 3.27383C3.86821 3.02284 4.16104 2.89734 4.4957 2.89734H17.0455C17.3802 2.89734 17.673 3.02284 17.924 3.27383C18.175 3.52483 18.3005 3.81766 18.3005 4.15232V16.7021C18.3005 17.0368 18.175 17.3296 17.924 17.5806C17.673 17.8316 17.3802 17.9571 17.0455 17.9571H4.4957ZM4.4957 16.7021H17.0455V4.15232H4.4957V16.7021Z" fill="#FF2C06"/>
</svg>
