<svg width="21" height="21" viewBox="0 0 21 21" fill="none" xmlns="http://www.w3.org/2000/svg">
<path d="M9.49544 14.168L15.5403 8.12314L14.6409 7.22373L9.49544 12.3692L7.0064 9.88011L6.10699 10.7795L9.49544 14.168ZM4.49644 18.3721C4.16177 18.3721 3.86895 18.2466 3.61795 17.9957C3.36695 17.7447 3.24146 17.4518 3.24146 17.1172V4.56736C3.24146 4.2327 3.36695 3.93987 3.61795 3.68887C3.86895 3.43788 4.16177 3.31238 4.49644 3.31238H17.0462C17.3809 3.31238 17.6737 3.43788 17.9247 3.68887C18.1757 3.93987 18.3012 4.2327 18.3012 4.56736V17.1172C18.3012 17.4518 18.1757 17.7447 17.9247 17.9957C17.6737 18.2466 17.3809 18.3721 17.0462 18.3721H4.49644ZM4.49644 17.1172H17.0462V4.56736H4.49644V17.1172Z" fill="#FF2C06"/>
</svg>
