<svg width="207" height="204" viewBox="0 0 207 204" fill="none" xmlns="http://www.w3.org/2000/svg">
<g clip-path="url(#clip0_334_1183)">
<path d="M174.942 68.8721C170.594 67.1802 167.454 69.9985 163.748 85.0665C160.042 100.135 160.931 116.972 160.931 116.972H164.956C167.371 93.8501 179.45 71.6904 179.45 71.6904C179.45 71.6904 179.291 70.5641 174.942 68.8721Z" fill="#FF2C06"/>
<path d="M162.298 121.24C158.351 120.274 155.21 128.332 155.858 132.359C156.5 136.386 162.704 137.275 164.714 130.749C166.724 124.223 164.844 121.869 162.298 121.24Z" fill="#FF2C06"/>
<path d="M150.944 98.4378C142.856 94.7494 138.59 101.894 136.705 111.824C136.705 111.824 136.705 111.828 136.705 111.833C134.304 121.443 128.327 134.293 125.82 132.518C122.684 130.3 131.458 115.033 131.618 103.19C131.69 97.7755 126.143 98.4378 121.471 100.371C123.462 101.938 122.012 114.531 119.626 118.925C118.007 121.898 115.939 124.426 113.46 125.543C115.813 116.353 116.533 106.607 109.958 105.447C101.744 103.997 96.5885 122.85 103.676 128.337C105.14 129.468 106.595 130.101 108.001 130.391C104.59 139.117 93.3755 148.428 91.7617 137.836C90.4427 129.197 95.627 117.223 101.265 111.65C94.2597 106.733 88.3023 113.743 85.4033 121.158C82.5044 128.569 81.5381 143.719 91.525 146.455C100.845 149.013 108.687 139.639 112.05 130.329C114.62 129.758 116.785 128.313 118.147 127.196C117.123 135.603 118.886 142.641 124.945 139.446C130.506 136.511 134.12 127.496 135.536 123.324C135.502 124.431 135.483 125.538 135.483 126.635C135.502 140.698 147.89 138.155 149.34 133.321C146.924 133.321 143.218 131.629 144.267 118.011C145.315 104.393 150.949 98.433 150.949 98.433L150.944 98.4378ZM108.025 111.089C111.489 109.547 111.851 112.679 109.141 126.021C102.502 124.595 104.73 112.553 108.025 111.089Z" fill="#FF2C06"/>
<path d="M71.121 127.501C67.4925 138.174 62.0715 148.215 59.9262 147.586C57.7279 146.944 62.2019 133.65 64.2988 124.706C66.3909 115.763 68.971 101.662 62.8494 99.6511C56.7277 97.6353 53.1862 103.035 53.1862 103.035C59.2257 104.809 57.6167 112.703 55.6841 123.662C53.7515 134.621 48.1855 150.269 56.0851 152.827C61.0955 154.451 65.5164 146.982 68.367 140.359C61.1535 171.496 52.6305 185.781 39.7398 196.252C26.0519 207.37 9.78395 193.027 17.8382 174.982C25.8925 156.936 38.1309 156.771 38.1309 156.771C38.1309 156.771 35.174 148.544 23.9599 153.871C8.01559 161.446 -0.357563 195.928 26.2162 203.179C48.9054 209.372 73.0392 173.038 81.2142 126.476C82.4221 119.602 84.9974 114.308 84.9974 114.308C74.7109 112.776 73.7833 114.719 71.1259 127.501H71.121Z" fill="#FF2C06"/>
<path d="M4.91376 54.2876C4.91376 54.2876 12.2819 37.9724 33.2994 32.1714C54.3168 26.3704 78.5618 27.753 95.2646 19.7235C107.585 13.8017 101.062 0.870361 101.062 0.870361C101.062 0.870361 97.5596 9.69267 71.8313 16.7022C46.1031 23.7117 14.6059 30.7018 6.72561 36.2804C-1.12573 41.8397 -2.57521 49.4535 4.91376 54.2876Z" fill="#FF2C06"/>
<path d="M25.5688 112.901C39.7012 99.7284 45.4991 70.361 49.8475 52.5956C54.196 34.8301 58.4236 31.8088 58.4236 31.8088C46.707 29.7543 43.0833 36.8846 40.5467 46.7946C38.0101 56.7046 35.3527 77.008 28.3469 96.828C21.3411 116.648 9.14135 116.648 7.93345 107.342C6.72555 98.0365 14.6977 87.8848 21.4619 85.9511C17.7174 78.6999 3.7058 81.7213 1.29 96.3349C-1.36254 112.365 13.9295 123.754 25.5688 112.901Z" fill="#FF2C06"/>
<path d="M206.99 70.8444C202.4 76.5245 178.001 58.3965 175.827 51.0245C182.591 47.278 196.482 27.9414 188.147 24.7993C179.813 21.6571 171.116 36.8846 165.922 49.9368C172.082 17.9106 181.021 9.45086 181.021 9.45086C176.672 7.03379 172.928 5.4627 167.13 15.977C161.332 26.4912 158.795 44.6192 157.684 52.7551C154.626 60.4704 150.611 69.1815 148.287 68.437C144.18 67.1173 156.5 39.06 151.789 35.4344C147.079 31.8088 138.744 38.9391 132.825 54.2875C134.033 46.1903 137.657 38.3348 137.657 38.3348C137.657 38.3348 130.53 35.3135 127.994 40.9936C125.902 45.6827 124.385 54.6501 123.645 60.8088C116.746 78.2793 110.412 79.2027 112.17 67.3397C113.982 55.1335 121.471 44.3775 121.471 44.3775C115.968 41.3562 112.62 42.7194 109.885 49.0666C105.715 38.4412 93.9359 47.4955 89.4618 58.5174C87.2876 63.8736 86.3503 69.457 86.645 74.0495C81.5235 85.7481 76.7548 85.9028 78.47 76.6454C80.2818 66.8563 85.5966 52.3538 79.3155 50.0576C73.0344 47.7614 66.1494 61.4034 61.3178 72.7781C64.5791 51.6287 74.4839 31.4559 74.4839 31.4559C74.4839 31.4559 65.787 28.6666 61.801 37.6097C57.8149 46.5529 52.8625 66.7354 51.3889 77.2497C49.9152 87.7639 50.6883 91.9938 58.4189 91.7521C60.5931 80.7544 66.9949 63.1098 73.0827 58.5174C70.5848 67.0738 66.391 88.489 74.0007 89.6976C79.8228 90.6209 85.2873 82.6397 87.534 78.8353C88.51 81.6922 90.2349 83.6597 92.7232 84.1383C97.748 85.11 102.58 77.2593 104.821 72.9473C104.942 77.6702 106.513 80.474 110.117 80.8753C115.069 81.4264 120.64 72.5799 123.041 68.2872C122.998 72.4977 124.008 76.1281 129.443 76.4037C129.806 70.2402 133.309 56.5837 137.899 49.4534C142.489 42.323 146.112 38.5766 142.609 48.97C139.106 59.3633 137.778 72.7781 145.025 73.2615C150.432 73.6241 155.428 65.7202 157.621 61.6741C158.288 65.1837 160.056 67.4895 163.385 67.7022C170.029 40.1476 182.76 25.1183 182.591 33.5007C182.422 41.8831 173.29 50.541 169.183 53.079C173.773 62.3847 185.49 75.6786 193.583 79.425C201.676 83.1715 207.232 77.1288 206.99 70.8444ZM98.5356 76.7662C94.134 77.269 96.3469 60.2093 101.662 53.4415C105.136 49.0183 107.266 51.3048 108.324 53.4174C106.672 57.246 105.764 63.6851 105.372 66.1698C103.42 71.1925 100.831 76.5004 98.5356 76.7614V76.7662Z" fill="#FF2C06"/>
</g>
<defs>
<clipPath id="clip0_334_1183">
<rect width="207" height="203" fill="white" transform="translate(0 0.870361)"/>
</clipPath>
</defs>
</svg>
