<svg width="16" height="16" viewBox="0 0 16 16" fill="none" xmlns="http://www.w3.org/2000/svg">
<path fill-rule="evenodd" clip-rule="evenodd" d="M1.95264 3.98446C1.95264 3.72216 2.16527 3.50952 2.42757 3.50952H13.826C14.0883 3.50952 14.301 3.72216 14.301 3.98446V12.0584C14.301 12.3103 14.2009 12.5519 14.0227 12.73C13.8446 12.9082 13.603 13.0082 13.3511 13.0082H2.90251C2.65059 13.0082 2.40898 12.9082 2.23085 12.73C2.05271 12.5519 1.95264 12.3103 1.95264 12.0584V3.98446ZM2.90251 4.45939V12.0584H13.3511V4.45939H2.90251Z" fill="#FF2C06"/>
<path fill-rule="evenodd" clip-rule="evenodd" d="M2.07747 3.66353C2.25472 3.47018 2.55515 3.45712 2.7485 3.63436L8.1268 8.56447L13.5051 3.63436C13.6985 3.45712 13.9989 3.47018 14.1761 3.66353C14.3534 3.85689 14.3403 4.15732 14.1469 4.33456L8.44772 9.55885C8.26615 9.7253 7.98745 9.7253 7.80587 9.55885L2.10665 4.33456C1.91329 4.15732 1.90023 3.85689 2.07747 3.66353Z" fill="#FF2C06"/>
</svg>
