<svg width="16" height="16" viewBox="0 0 16 16" fill="none" xmlns="http://www.w3.org/2000/svg">
<path fill-rule="evenodd" clip-rule="evenodd" d="M1.86157 3.79171C1.86157 3.52941 2.07421 3.31677 2.33651 3.31677H13.735C13.9973 3.31677 14.2099 3.52941 14.2099 3.79171V11.8656C14.2099 12.1175 14.1098 12.3591 13.9317 12.5373C13.7535 12.7154 13.5119 12.8155 13.26 12.8155H2.81144C2.55952 12.8155 2.31792 12.7154 2.13978 12.5373C1.96165 12.3591 1.86157 12.1175 1.86157 11.8656V3.79171ZM2.81144 4.26664V11.8656H13.26V4.26664H2.81144Z" fill="#FF2C06"/>
<path fill-rule="evenodd" clip-rule="evenodd" d="M1.98641 3.47079C2.16365 3.27743 2.46408 3.26437 2.65744 3.44161L8.03573 8.37172L13.414 3.44161C13.6074 3.26437 13.9078 3.27743 14.0851 3.47079C14.2623 3.66414 14.2492 3.96457 14.0559 4.14181L8.35666 9.3661C8.17508 9.53255 7.89639 9.53255 7.71481 9.3661L2.01558 4.14181C1.82223 3.96457 1.80917 3.66414 1.98641 3.47079Z" fill="#FF2C06"/>
</svg>
