<svg width="16" height="17" viewBox="0 0 16 17" fill="none" xmlns="http://www.w3.org/2000/svg">
<path fill-rule="evenodd" clip-rule="evenodd" d="M1.86157 4.17721C1.86157 3.91491 2.07421 3.70227 2.33651 3.70227H13.735C13.9973 3.70227 14.2099 3.91491 14.2099 4.17721V12.2511C14.2099 12.503 14.1098 12.7446 13.9317 12.9228C13.7535 13.1009 13.5119 13.201 13.26 13.201H2.81144C2.55952 13.201 2.31792 13.1009 2.13978 12.9228C1.96165 12.7446 1.86157 12.503 1.86157 12.2511V4.17721ZM2.81144 4.65214V12.2511H13.26V4.65214H2.81144Z" fill="#FF2C06"/>
<path fill-rule="evenodd" clip-rule="evenodd" d="M1.98641 3.85628C2.16365 3.66293 2.46408 3.64987 2.65744 3.82711L8.03573 8.75722L13.414 3.82711C13.6074 3.64987 13.9078 3.66293 14.0851 3.85628C14.2623 4.04964 14.2492 4.35007 14.0559 4.52731L8.35666 9.7516C8.17508 9.91804 7.89639 9.91804 7.71481 9.7516L2.01558 4.52731C1.82223 4.35007 1.80917 4.04964 1.98641 3.85628Z" fill="#FF2C06"/>
</svg>
