<svg width="18" height="19" viewBox="0 0 18 19" fill="none" xmlns="http://www.w3.org/2000/svg">
<path fill-rule="evenodd" clip-rule="evenodd" d="M1.95825 4.65834C1.95825 4.35918 2.20076 4.11667 2.49992 4.11667H15.4999C15.7991 4.11667 16.0416 4.35918 16.0416 4.65834V13.8667C16.0416 14.154 15.9274 14.4295 15.7243 14.6327C15.5211 14.8359 15.2456 14.95 14.9583 14.95H3.04159C2.75427 14.95 2.47872 14.8359 2.27555 14.6327C2.07239 14.4295 1.95825 14.154 1.95825 13.8667V4.65834ZM3.04159 5.2V13.8667H14.9583V5.2H3.04159Z" fill="#FF2C06"/>
<path fill-rule="evenodd" clip-rule="evenodd" d="M2.10063 4.29232C2.30278 4.0718 2.64542 4.0569 2.86594 4.25905L8.99992 9.88186L15.1339 4.25905C15.3544 4.0569 15.6971 4.0718 15.8992 4.29232C16.1014 4.51284 16.0865 4.85548 15.8659 5.05763L9.36594 11.016C9.15885 11.2058 8.84099 11.2058 8.6339 11.016L2.1339 5.05763C1.91338 4.85548 1.89848 4.51284 2.10063 4.29232Z" fill="#FF2C06"/>
</svg>
