<svg width="41" height="52" viewBox="0 0 41 52" fill="none" xmlns="http://www.w3.org/2000/svg">
<g clip-path="url(#clip0_701_355)">
<path d="M18.8677 25.6438C18.0248 25.6432 17.1949 25.8535 16.4513 26.2561C15.7077 26.6587 15.0734 27.2412 14.6047 27.9519C14.1359 28.6627 13.8472 29.4797 13.764 30.3307C13.6809 31.1817 13.8059 32.0404 14.1279 32.8307C14.45 33.621 14.9591 34.3185 15.6103 34.8614C16.2615 35.4044 17.0347 35.776 17.8612 35.9433C18.6878 36.1106 19.5422 36.0685 20.3489 35.8208C21.1556 35.573 21.8896 35.1272 22.4859 34.5228C23.2009 33.7952 23.6873 32.8689 23.8839 31.861C24.0804 30.8531 23.9783 29.8087 23.5904 28.8596C23.2025 27.9105 22.5462 27.0993 21.7043 26.5284C20.8624 25.9574 19.8726 25.6523 18.86 25.6516L18.8677 25.6438ZM12.8125 13V0.338013C11.563 0.691098 10.4227 1.3613 9.49919 2.28541L2.25244 9.63821C1.34166 10.5752 0.681123 11.7322 0.33313 13H12.8125Z" fill="black"/>
<path d="M36.0447 0H17.9381V13C17.9381 14.3791 17.3981 15.7018 16.437 16.677C15.4759 17.6521 14.1723 18.2 12.8131 18.2H0.000598884V46.8C-0.0199731 48.1558 0.490173 49.4646 1.41919 50.4394C2.3482 51.4142 3.62026 51.9754 4.95647 52H36.0447C37.3809 51.9754 38.653 51.4142 39.582 50.4394C40.511 49.4646 41.0212 48.1558 41.0006 46.8V5.2C41.0212 3.84417 40.511 2.53539 39.582 1.56062C38.653 0.585841 37.3809 0.0246188 36.0447 0ZM31.6321 43.7944C31.1516 44.2818 30.4999 44.5556 29.8204 44.5556C29.1409 44.5556 28.4893 44.2818 28.0087 43.7944L24.0445 39.78C22.4809 40.7337 20.6927 41.2421 18.8683 41.2516C16.841 41.2516 14.8593 40.6416 13.1737 39.4989C11.4881 38.3561 10.1743 36.7319 9.39852 34.8315C8.62272 32.9312 8.41974 30.8401 8.81524 28.8227C9.21074 26.8053 10.187 24.9522 11.6204 23.4977C13.0539 22.0432 14.8803 21.0527 16.8686 20.6514C18.8569 20.2501 20.9178 20.4561 22.7908 21.2433C24.6637 22.0304 26.2646 23.3634 27.3908 25.0737C28.5171 26.7839 29.1183 28.7947 29.1183 30.8516C29.1089 32.7027 28.6079 34.5171 27.6679 36.1036L31.6321 40.1258C32.1101 40.613 32.3785 41.2726 32.3785 41.9601C32.3785 42.6476 32.1101 43.3071 31.6321 43.7944Z" fill="black"/>
</g>
<defs>
<clipPath id="clip0_701_355">
<rect width="41" height="52" fill="white"/>
</clipPath>
</defs>
</svg>
