<svg width="11" height="11" viewBox="0 0 11 11" fill="none" xmlns="http://www.w3.org/2000/svg">
<path d="M1.77549 2.89431C2.48559 2.89431 3.06123 2.31867 3.06123 1.60857C3.06123 0.898474 2.48559 0.322827 1.77549 0.322827C1.06539 0.322827 0.489746 0.898474 0.489746 1.60857C0.489746 2.31867 1.06539 2.89431 1.77549 2.89431Z" fill="#FF2C06"/>
<path d="M2.84694 3.75319H0.704037C0.585748 3.75319 0.489746 3.84919 0.489746 3.96748V10.3962C0.489746 10.5145 0.585748 10.6105 0.704037 10.6105H2.84694C2.96523 10.6105 3.06123 10.5145 3.06123 10.3962V3.96748C3.06123 3.84919 2.96523 3.75319 2.84694 3.75319Z" fill="#FF2C06"/>
<path d="M9.23304 3.39667C8.31716 3.08295 7.17157 3.35853 6.48455 3.85268C6.46098 3.76054 6.37698 3.69197 6.27712 3.69197H4.13421C4.01592 3.69197 3.91992 3.78797 3.91992 3.90626V10.335C3.91992 10.4533 4.01592 10.5493 4.13421 10.5493H6.27712C6.39541 10.5493 6.49141 10.4533 6.49141 10.335V5.71487C6.8377 5.41657 7.28386 5.32143 7.64901 5.47658C8.00301 5.62615 8.20573 5.9913 8.20573 6.47774V10.335C8.20573 10.4533 8.30174 10.5493 8.42002 10.5493H10.5629C10.6812 10.5493 10.7772 10.4533 10.7772 10.335V6.04616C10.7528 4.28512 9.92434 3.63325 9.23304 3.39667Z" fill="#FF2C06"/>
</svg>
