<svg width="18" height="18" viewBox="0 0 18 18" fill="none" xmlns="http://www.w3.org/2000/svg">
<path fill-rule="evenodd" clip-rule="evenodd" d="M9.09825 8.84233C8.66505 8.84233 8.31388 9.1935 8.31388 9.62669C8.31388 10.0599 8.66505 10.4111 9.09825 10.4111C9.53144 10.4111 9.88261 10.0599 9.88261 9.62669C9.88261 9.1935 9.53144 8.84233 9.09825 8.84233ZM7.26807 9.62669C7.26807 8.61591 8.08747 7.79651 9.09825 7.79651C10.109 7.79651 10.9284 8.61591 10.9284 9.62669C10.9284 10.6375 10.109 11.4569 9.09825 11.4569C8.08747 11.4569 7.26807 10.6375 7.26807 9.62669Z" fill="#FF2C06"/>
<path fill-rule="evenodd" clip-rule="evenodd" d="M9.09835 10.4111C9.38714 10.4111 9.62126 10.6452 9.62126 10.934V12.5028C9.62126 12.7916 9.38714 13.0257 9.09835 13.0257C8.80955 13.0257 8.57544 12.7916 8.57544 12.5028V10.934C8.57544 10.6452 8.80955 10.4111 9.09835 10.4111Z" fill="#FF2C06"/>
<path fill-rule="evenodd" clip-rule="evenodd" d="M2.82324 6.75077C2.82324 6.17318 3.29147 5.70496 3.86906 5.70496H14.3272C14.9048 5.70496 15.373 6.17318 15.373 6.75077V14.0715C15.373 14.6491 14.9048 15.1173 14.3272 15.1173H3.86906C3.29147 15.1173 2.82324 14.6491 2.82324 14.0715V6.75077ZM14.3272 6.75077H3.86906V14.0715H14.3272V6.75077Z" fill="#FF2C06"/>
<path fill-rule="evenodd" clip-rule="evenodd" d="M9.09817 2.0446C8.61277 2.0446 8.14726 2.23742 7.80403 2.58064C7.46081 2.92387 7.26799 3.38938 7.26799 3.87478V6.22787C7.26799 6.51666 7.03387 6.75077 6.74508 6.75077C6.45628 6.75077 6.22217 6.51666 6.22217 6.22787V3.87478C6.22217 3.11201 6.52517 2.38049 7.06453 1.84114C7.60388 1.30179 8.3354 0.998779 9.09817 0.998779C9.86093 0.998779 10.5924 1.30179 11.1318 1.84114C11.6712 2.38049 11.9742 3.11201 11.9742 3.87478V6.22787C11.9742 6.51666 11.74 6.75077 11.4513 6.75077C11.1625 6.75077 10.9283 6.51666 10.9283 6.22787V3.87478C10.9283 3.38938 10.7355 2.92387 10.3923 2.58064C10.0491 2.23742 9.58356 2.0446 9.09817 2.0446Z" fill="#FF2C06"/>
</svg>
