<svg width="18" height="17" viewBox="0 0 18 17" fill="none" xmlns="http://www.w3.org/2000/svg">
<path fill-rule="evenodd" clip-rule="evenodd" d="M9.09739 8.42729C8.6642 8.42729 8.31303 8.77846 8.31303 9.21165C8.31303 9.64484 8.6642 9.99601 9.09739 9.99601C9.53058 9.99601 9.88176 9.64484 9.88176 9.21165C9.88176 8.77846 9.53058 8.42729 9.09739 8.42729ZM7.26721 9.21165C7.26721 8.20087 8.08661 7.38147 9.09739 7.38147C10.1082 7.38147 10.9276 8.20087 10.9276 9.21165C10.9276 10.2224 10.1082 11.0418 9.09739 11.0418C8.08661 11.0418 7.26721 10.2224 7.26721 9.21165Z" fill="#FF2C06"/>
<path fill-rule="evenodd" clip-rule="evenodd" d="M9.09737 9.99609C9.38617 9.99609 9.62028 10.2302 9.62028 10.519V12.0877C9.62028 12.3765 9.38617 12.6106 9.09737 12.6106C8.80858 12.6106 8.57446 12.3765 8.57446 12.0877V10.519C8.57446 10.2302 8.80858 9.99609 9.09737 9.99609Z" fill="#FF2C06"/>
<path fill-rule="evenodd" clip-rule="evenodd" d="M2.82251 6.33573C2.82251 5.75815 3.29074 5.28992 3.86833 5.28992H14.3265C14.9041 5.28992 15.3723 5.75815 15.3723 6.33573V13.6565C15.3723 14.234 14.9041 14.7023 14.3265 14.7023H3.86833C3.29074 14.7023 2.82251 14.234 2.82251 13.6565V6.33573ZM14.3265 6.33573H3.86833V13.6565H14.3265V6.33573Z" fill="#FF2C06"/>
<path fill-rule="evenodd" clip-rule="evenodd" d="M9.09743 1.62956C8.61204 1.62956 8.14653 1.82238 7.8033 2.1656C7.46008 2.50883 7.26725 2.97434 7.26725 3.45974V5.81283C7.26725 6.10162 7.03314 6.33574 6.74434 6.33574C6.45555 6.33574 6.22144 6.10162 6.22144 5.81283V3.45974C6.22144 2.69698 6.52444 1.96545 7.0638 1.4261C7.60315 0.886746 8.33467 0.58374 9.09743 0.58374C9.86019 0.58374 10.5917 0.886746 11.1311 1.4261C11.6704 1.96545 11.9734 2.69698 11.9734 3.45974V5.81283C11.9734 6.10162 11.7393 6.33574 11.4505 6.33574C11.1617 6.33574 10.9276 6.10162 10.9276 5.81283V3.45974C10.9276 2.97434 10.7348 2.50883 10.3916 2.1656C10.0483 1.82238 9.58283 1.62956 9.09743 1.62956Z" fill="#FF2C06"/>
</svg>
