<svg width="18" height="18" viewBox="0 0 18 18" fill="none" xmlns="http://www.w3.org/2000/svg">
<path fill-rule="evenodd" clip-rule="evenodd" d="M9.00008 8.86667C8.55135 8.86667 8.18758 9.23044 8.18758 9.67917C8.18758 10.1279 8.55135 10.4917 9.00008 10.4917C9.44881 10.4917 9.81258 10.1279 9.81258 9.67917C9.81258 9.23044 9.44881 8.86667 9.00008 8.86667ZM7.10425 9.67917C7.10425 8.63213 7.95304 7.78334 9.00008 7.78334C10.0471 7.78334 10.8959 8.63213 10.8959 9.67917C10.8959 10.7262 10.0471 11.575 9.00008 11.575C7.95304 11.575 7.10425 10.7262 7.10425 9.67917Z" fill="#FF2C06"/>
<path fill-rule="evenodd" clip-rule="evenodd" d="M8.99992 10.4917C9.29907 10.4917 9.54159 10.7342 9.54159 11.0333V12.6583C9.54159 12.9575 9.29907 13.2 8.99992 13.2C8.70076 13.2 8.45825 12.9575 8.45825 12.6583V11.0333C8.45825 10.7342 8.70076 10.4917 8.99992 10.4917Z" fill="#FF2C06"/>
<path fill-rule="evenodd" clip-rule="evenodd" d="M2.5 6.7C2.5 6.10169 2.98502 5.61667 3.58333 5.61667H14.4167C15.015 5.61667 15.5 6.10169 15.5 6.7V14.2833C15.5 14.8816 15.015 15.3667 14.4167 15.3667H3.58333C2.98502 15.3667 2.5 14.8816 2.5 14.2833V6.7ZM14.4167 6.7H3.58333V14.2833H14.4167V6.7Z" fill="#FF2C06"/>
<path fill-rule="evenodd" clip-rule="evenodd" d="M8.99992 1.825C8.49711 1.825 8.0149 2.02474 7.65936 2.38028C7.30382 2.73582 7.10409 3.21803 7.10409 3.72084V6.15834C7.10409 6.45749 6.86157 6.7 6.56242 6.7C6.26326 6.7 6.02075 6.45749 6.02075 6.15834V3.72084C6.02075 2.93071 6.33463 2.17295 6.89333 1.61425C7.45203 1.05554 8.20979 0.741669 8.99992 0.741669C9.79004 0.741669 10.5478 1.05554 11.1065 1.61425C11.6652 2.17295 11.9791 2.93071 11.9791 3.72084V6.15834C11.9791 6.45749 11.7366 6.7 11.4374 6.7C11.1383 6.7 10.8958 6.45749 10.8958 6.15834V3.72084C10.8958 3.21803 10.696 2.73582 10.3405 2.38028C9.98494 2.02474 9.50272 1.825 8.99992 1.825Z" fill="#FF2C06"/>
</svg>
