<svg width="16" height="16" viewBox="0 0 16 16" fill="none" xmlns="http://www.w3.org/2000/svg">
<path fill-rule="evenodd" clip-rule="evenodd" d="M8.38859 7.83708C7.99514 7.83708 7.67619 8.15603 7.67619 8.54948C7.67619 8.94293 7.99514 9.26188 8.38859 9.26188C8.78204 9.26188 9.101 8.94293 9.101 8.54948C9.101 8.15603 8.78204 7.83708 8.38859 7.83708ZM6.72632 8.54948C6.72632 7.63143 7.47054 6.88721 8.38859 6.88721C9.30664 6.88721 10.0509 7.63143 10.0509 8.54948C10.0509 9.46753 9.30664 10.2118 8.38859 10.2118C7.47054 10.2118 6.72632 9.46753 6.72632 8.54948Z" fill="#FF2C06"/>
<path fill-rule="evenodd" clip-rule="evenodd" d="M8.38863 9.26196C8.65093 9.26196 8.86357 9.4746 8.86357 9.7369V11.1617C8.86357 11.424 8.65093 11.6366 8.38863 11.6366C8.12633 11.6366 7.9137 11.424 7.9137 11.1617V9.7369C7.9137 9.4746 8.12633 9.26196 8.38863 9.26196Z" fill="#FF2C06"/>
<path fill-rule="evenodd" clip-rule="evenodd" d="M2.68945 5.93742C2.68945 5.41282 3.11472 4.98755 3.63932 4.98755H13.138C13.6626 4.98755 14.0879 5.41282 14.0879 5.93742V12.5865C14.0879 13.1111 13.6626 13.5364 13.138 13.5364H3.63932C3.11472 13.5364 2.68945 13.1111 2.68945 12.5865V5.93742ZM13.138 5.93742H3.63932V12.5865H13.138V5.93742Z" fill="#FF2C06"/>
<path fill-rule="evenodd" clip-rule="evenodd" d="M8.38863 1.66301C7.94777 1.66301 7.52497 1.83814 7.21323 2.14987C6.90149 2.46161 6.72636 2.88442 6.72636 3.32528V5.46249C6.72636 5.72479 6.51372 5.93742 6.25142 5.93742C5.98913 5.93742 5.77649 5.72479 5.77649 5.46249V3.32528C5.77649 2.6325 6.0517 1.96809 6.54157 1.47821C7.03144 0.988342 7.69585 0.713135 8.38863 0.713135C9.08142 0.713135 9.74583 0.988342 10.2357 1.47821C10.7256 1.96809 11.0008 2.6325 11.0008 3.32528V5.46249C11.0008 5.72479 10.7881 5.93742 10.5258 5.93742C10.2635 5.93742 10.0509 5.72479 10.0509 5.46249V3.32528C10.0509 2.88442 9.87578 2.46161 9.56404 2.14987C9.2523 1.83814 8.8295 1.66301 8.38863 1.66301Z" fill="#FF2C06"/>
</svg>
