<svg width="18" height="18" viewBox="0 0 18 18" fill="none" xmlns="http://www.w3.org/2000/svg">
<path fill-rule="evenodd" clip-rule="evenodd" d="M9.09739 8.84245C8.6642 8.84245 8.31303 9.19362 8.31303 9.62681C8.31303 10.06 8.6642 10.4112 9.09739 10.4112C9.53058 10.4112 9.88176 10.06 9.88176 9.62681C9.88176 9.19362 9.53058 8.84245 9.09739 8.84245ZM7.26721 9.62681C7.26721 8.61603 8.08661 7.79663 9.09739 7.79663C10.1082 7.79663 10.9276 8.61603 10.9276 9.62681C10.9276 10.6376 10.1082 11.457 9.09739 11.457C8.08661 11.457 7.26721 10.6376 7.26721 9.62681Z" fill="#FF2C06"/>
<path fill-rule="evenodd" clip-rule="evenodd" d="M9.09737 10.4113C9.38617 10.4113 9.62028 10.6454 9.62028 10.9342V12.5029C9.62028 12.7917 9.38617 13.0258 9.09737 13.0258C8.80858 13.0258 8.57446 12.7917 8.57446 12.5029V10.9342C8.57446 10.6454 8.80858 10.4113 9.09737 10.4113Z" fill="#FF2C06"/>
<path fill-rule="evenodd" clip-rule="evenodd" d="M2.82251 6.7509C2.82251 6.17331 3.29074 5.70508 3.86833 5.70508H14.3265C14.9041 5.70508 15.3723 6.17331 15.3723 6.7509V14.0716C15.3723 14.6492 14.9041 15.1174 14.3265 15.1174H3.86833C3.29074 15.1174 2.82251 14.6492 2.82251 14.0716V6.7509ZM14.3265 6.7509H3.86833V14.0716H14.3265V6.7509Z" fill="#FF2C06"/>
<path fill-rule="evenodd" clip-rule="evenodd" d="M9.09743 2.04472C8.61204 2.04472 8.14653 2.23754 7.8033 2.58077C7.46008 2.92399 7.26725 3.3895 7.26725 3.8749V6.22799C7.26725 6.51678 7.03314 6.7509 6.74434 6.7509C6.45555 6.7509 6.22144 6.51678 6.22144 6.22799V3.8749C6.22144 3.11214 6.52444 2.38062 7.0638 1.84126C7.60315 1.30191 8.33467 0.998901 9.09743 0.998901C9.86019 0.998901 10.5917 1.30191 11.1311 1.84126C11.6704 2.38062 11.9734 3.11214 11.9734 3.8749V6.22799C11.9734 6.51678 11.7393 6.7509 11.4505 6.7509C11.1617 6.7509 10.9276 6.51678 10.9276 6.22799V3.8749C10.9276 3.3895 10.7348 2.92399 10.3916 2.58077C10.0483 2.23754 9.58283 2.04472 9.09743 2.04472Z" fill="#FF2C06"/>
</svg>
