<svg width="18" height="17" viewBox="0 0 18 17" fill="none" xmlns="http://www.w3.org/2000/svg">
<path fill-rule="evenodd" clip-rule="evenodd" d="M9.32933 8.57633C8.89613 8.57633 8.54496 8.92751 8.54496 9.3607C8.54496 9.79389 8.89613 10.1451 9.32933 10.1451C9.76252 10.1451 10.1137 9.79389 10.1137 9.3607C10.1137 8.92751 9.76252 8.57633 9.32933 8.57633ZM7.49915 9.3607C7.49915 8.34992 8.31855 7.53052 9.32933 7.53052C10.3401 7.53052 11.1595 8.34992 11.1595 9.3607C11.1595 10.3715 10.3401 11.1909 9.32933 11.1909C8.31855 11.1909 7.49915 10.3715 7.49915 9.3607Z" fill="#FF2C06"/>
<path fill-rule="evenodd" clip-rule="evenodd" d="M9.32931 10.1451C9.6181 10.1451 9.85221 10.3793 9.85221 10.6681V12.2368C9.85221 12.5256 9.6181 12.7597 9.32931 12.7597C9.04051 12.7597 8.8064 12.5256 8.8064 12.2368V10.6681C8.8064 10.3793 9.04051 10.1451 9.32931 10.1451Z" fill="#FF2C06"/>
<path fill-rule="evenodd" clip-rule="evenodd" d="M3.05444 6.48478C3.05444 5.90719 3.52267 5.43896 4.10026 5.43896H14.5584C15.136 5.43896 15.6042 5.90719 15.6042 6.48478V13.8055C15.6042 14.3831 15.136 14.8513 14.5584 14.8513H4.10026C3.52267 14.8513 3.05444 14.3831 3.05444 13.8055V6.48478ZM14.5584 6.48478H4.10026V13.8055H14.5584V6.48478Z" fill="#FF2C06"/>
<path fill-rule="evenodd" clip-rule="evenodd" d="M9.32937 1.77861C8.84397 1.77861 8.37846 1.97143 8.03523 2.31465C7.69201 2.65788 7.49919 3.12339 7.49919 3.60879V5.96187C7.49919 6.25067 7.26507 6.48478 6.97628 6.48478C6.68748 6.48478 6.45337 6.25067 6.45337 5.96187V3.60879C6.45337 2.84602 6.75638 2.1145 7.29573 1.57515C7.83508 1.03579 8.5666 0.732788 9.32937 0.732788C10.0921 0.732788 10.8236 1.03579 11.363 1.57515C11.9024 2.1145 12.2054 2.84602 12.2054 3.60879V5.96187C12.2054 6.25067 11.9713 6.48478 11.6825 6.48478C11.3937 6.48478 11.1595 6.25067 11.1595 5.96187V3.60879C11.1595 3.12339 10.9667 2.65788 10.6235 2.31465C10.2803 1.97143 9.81476 1.77861 9.32937 1.77861Z" fill="#FF2C06"/>
</svg>
