<svg width="18" height="17" viewBox="0 0 18 17" fill="none" xmlns="http://www.w3.org/2000/svg">
<path fill-rule="evenodd" clip-rule="evenodd" d="M9.09825 8.42729C8.66505 8.42729 8.31388 8.77846 8.31388 9.21165C8.31388 9.64484 8.66505 9.99601 9.09825 9.99601C9.53144 9.99601 9.88261 9.64484 9.88261 9.21165C9.88261 8.77846 9.53144 8.42729 9.09825 8.42729ZM7.26807 9.21165C7.26807 8.20087 8.08747 7.38147 9.09825 7.38147C10.109 7.38147 10.9284 8.20087 10.9284 9.21165C10.9284 10.2224 10.109 11.0418 9.09825 11.0418C8.08747 11.0418 7.26807 10.2224 7.26807 9.21165Z" fill="#FF2C06"/>
<path fill-rule="evenodd" clip-rule="evenodd" d="M9.09835 9.99609C9.38714 9.99609 9.62126 10.2302 9.62126 10.519V12.0877C9.62126 12.3765 9.38714 12.6106 9.09835 12.6106C8.80955 12.6106 8.57544 12.3765 8.57544 12.0877V10.519C8.57544 10.2302 8.80955 9.99609 9.09835 9.99609Z" fill="#FF2C06"/>
<path fill-rule="evenodd" clip-rule="evenodd" d="M2.82324 6.33573C2.82324 5.75815 3.29147 5.28992 3.86906 5.28992H14.3272C14.9048 5.28992 15.373 5.75815 15.373 6.33573V13.6565C15.373 14.234 14.9048 14.7023 14.3272 14.7023H3.86906C3.29147 14.7023 2.82324 14.234 2.82324 13.6565V6.33573ZM14.3272 6.33573H3.86906V13.6565H14.3272V6.33573Z" fill="#FF2C06"/>
<path fill-rule="evenodd" clip-rule="evenodd" d="M9.09817 1.62956C8.61277 1.62956 8.14726 1.82238 7.80403 2.1656C7.46081 2.50883 7.26799 2.97434 7.26799 3.45974V5.81283C7.26799 6.10162 7.03387 6.33574 6.74508 6.33574C6.45628 6.33574 6.22217 6.10162 6.22217 5.81283V3.45974C6.22217 2.69698 6.52517 1.96545 7.06453 1.4261C7.60388 0.886746 8.3354 0.58374 9.09817 0.58374C9.86093 0.58374 10.5924 0.886746 11.1318 1.4261C11.6712 1.96545 11.9742 2.69698 11.9742 3.45974V5.81283C11.9742 6.10162 11.74 6.33574 11.4513 6.33574C11.1625 6.33574 10.9283 6.10162 10.9283 5.81283V3.45974C10.9283 2.97434 10.7355 2.50883 10.3923 2.1656C10.0491 1.82238 9.58356 1.62956 9.09817 1.62956Z" fill="#FF2C06"/>
</svg>
