<svg width="16" height="16" viewBox="0 0 16 16" fill="none" xmlns="http://www.w3.org/2000/svg">
<path fill-rule="evenodd" clip-rule="evenodd" d="M8.03581 7.64433C7.64236 7.64433 7.32341 7.96328 7.32341 8.35673C7.32341 8.75018 7.64236 9.06913 8.03581 9.06913C8.42926 9.06913 8.74821 8.75018 8.74821 8.35673C8.74821 7.96328 8.42926 7.64433 8.03581 7.64433ZM6.37354 8.35673C6.37354 7.43868 7.11776 6.69446 8.03581 6.69446C8.95386 6.69446 9.69808 7.43868 9.69808 8.35673C9.69808 9.27478 8.95386 10.019 8.03581 10.019C7.11776 10.019 6.37354 9.27478 6.37354 8.35673Z" fill="#FF2C06"/>
<path fill-rule="evenodd" clip-rule="evenodd" d="M8.03573 9.06921C8.29803 9.06921 8.51066 9.28185 8.51066 9.54415V10.969C8.51066 11.2313 8.29803 11.4439 8.03573 11.4439C7.77343 11.4439 7.56079 11.2313 7.56079 10.969V9.54415C7.56079 9.28185 7.77343 9.06921 8.03573 9.06921Z" fill="#FF2C06"/>
<path fill-rule="evenodd" clip-rule="evenodd" d="M2.33643 5.74467C2.33643 5.22007 2.7617 4.7948 3.2863 4.7948H12.785C13.3096 4.7948 13.7349 5.22007 13.7349 5.74467V12.3938C13.7349 12.9184 13.3096 13.3436 12.785 13.3436H3.2863C2.7617 13.3436 2.33643 12.9184 2.33643 12.3938V5.74467ZM12.785 5.74467H3.2863V12.3938H12.785V5.74467Z" fill="#FF2C06"/>
<path fill-rule="evenodd" clip-rule="evenodd" d="M8.03573 1.47026C7.59487 1.47026 7.17206 1.64539 6.86032 1.95713C6.54859 2.26886 6.37345 2.69167 6.37345 3.13253V5.26974C6.37345 5.53204 6.16082 5.74467 5.89852 5.74467C5.63622 5.74467 5.42358 5.53204 5.42358 5.26974V3.13253C5.42358 2.43975 5.69879 1.77534 6.18866 1.28547C6.67854 0.795593 7.34294 0.520386 8.03573 0.520386C8.72851 0.520386 9.39292 0.795593 9.88279 1.28547C10.3727 1.77534 10.6479 2.43975 10.6479 3.13253V5.26974C10.6479 5.53204 10.4352 5.74467 10.1729 5.74467C9.91064 5.74467 9.698 5.53204 9.698 5.26974V3.13253C9.698 2.69167 9.52287 2.26886 9.21113 1.95713C8.8994 1.64539 8.47659 1.47026 8.03573 1.47026Z" fill="#FF2C06"/>
</svg>
