<svg width="18" height="18" viewBox="0 0 18 18" fill="none" xmlns="http://www.w3.org/2000/svg">
<path fill-rule="evenodd" clip-rule="evenodd" d="M8.71592 8.8422C8.28273 8.8422 7.93156 9.19338 7.93156 9.62657C7.93156 10.0598 8.28273 10.4109 8.71592 10.4109C9.14911 10.4109 9.50029 10.0598 9.50029 9.62657C9.50029 9.19338 9.14911 8.8422 8.71592 8.8422ZM6.88574 9.62657C6.88574 8.61579 7.70514 7.79639 8.71592 7.79639C9.7267 7.79639 10.5461 8.61579 10.5461 9.62657C10.5461 10.6373 9.7267 11.4567 8.71592 11.4567C7.70514 11.4567 6.88574 10.6373 6.88574 9.62657Z" fill="#FF2C06"/>
<path fill-rule="evenodd" clip-rule="evenodd" d="M8.71602 10.411C9.00482 10.411 9.23893 10.6451 9.23893 10.9339V12.5026C9.23893 12.7914 9.00482 13.0256 8.71602 13.0256C8.42723 13.0256 8.19312 12.7914 8.19312 12.5026V10.9339C8.19312 10.6451 8.42723 10.411 8.71602 10.411Z" fill="#FF2C06"/>
<path fill-rule="evenodd" clip-rule="evenodd" d="M2.44092 6.75065C2.44092 6.17306 2.90915 5.70483 3.48674 5.70483H13.9449C14.5225 5.70483 14.9907 6.17306 14.9907 6.75065V14.0714C14.9907 14.649 14.5225 15.1172 13.9449 15.1172H3.48674C2.90915 15.1172 2.44092 14.649 2.44092 14.0714V6.75065ZM13.9449 6.75065H3.48674V14.0714H13.9449V6.75065Z" fill="#FF2C06"/>
<path fill-rule="evenodd" clip-rule="evenodd" d="M8.71584 2.04447C8.23045 2.04447 7.76493 2.2373 7.42171 2.58052C7.07848 2.92375 6.88566 3.38926 6.88566 3.87465V6.22774C6.88566 6.51654 6.65155 6.75065 6.36275 6.75065C6.07396 6.75065 5.83984 6.51654 5.83984 6.22774V3.87465C5.83984 3.11189 6.14285 2.38037 6.6822 1.84102C7.22156 1.30166 7.95308 0.998657 8.71584 0.998657C9.4786 0.998657 10.2101 1.30166 10.7495 1.84102C11.2888 2.38037 11.5918 3.11189 11.5918 3.87465V6.22774C11.5918 6.51654 11.3577 6.75065 11.0689 6.75065C10.7801 6.75065 10.546 6.51654 10.546 6.22774V3.87465C10.546 3.38926 10.3532 2.92375 10.01 2.58052C9.66675 2.2373 9.20124 2.04447 8.71584 2.04447Z" fill="#FF2C06"/>
</svg>
