<svg width="16" height="16" viewBox="0 0 16 16" fill="none" xmlns="http://www.w3.org/2000/svg">
<path fill-rule="evenodd" clip-rule="evenodd" d="M8.12687 7.83708C7.73342 7.83708 7.41447 8.15603 7.41447 8.54948C7.41447 8.94293 7.73342 9.26188 8.12687 9.26188C8.52032 9.26188 8.83928 8.94293 8.83928 8.54948C8.83928 8.15603 8.52032 7.83708 8.12687 7.83708ZM6.4646 8.54948C6.4646 7.63143 7.20882 6.88721 8.12687 6.88721C9.04492 6.88721 9.78915 7.63143 9.78915 8.54948C9.78915 9.46753 9.04492 10.2118 8.12687 10.2118C7.20882 10.2118 6.4646 9.46753 6.4646 8.54948Z" fill="#FF2C06"/>
<path fill-rule="evenodd" clip-rule="evenodd" d="M8.12691 9.26196C8.38921 9.26196 8.60185 9.4746 8.60185 9.7369V11.1617C8.60185 11.424 8.38921 11.6366 8.12691 11.6366C7.86461 11.6366 7.65198 11.424 7.65198 11.1617V9.7369C7.65198 9.4746 7.86461 9.26196 8.12691 9.26196Z" fill="#FF2C06"/>
<path fill-rule="evenodd" clip-rule="evenodd" d="M2.42773 5.93742C2.42773 5.41282 2.85301 4.98755 3.37761 4.98755H12.8763C13.4009 4.98755 13.8262 5.41282 13.8262 5.93742V12.5865C13.8262 13.1111 13.4009 13.5364 12.8763 13.5364H3.37761C2.85301 13.5364 2.42773 13.1111 2.42773 12.5865V5.93742ZM12.8763 5.93742H3.37761V12.5865H12.8763V5.93742Z" fill="#FF2C06"/>
<path fill-rule="evenodd" clip-rule="evenodd" d="M8.12691 1.66301C7.68605 1.66301 7.26325 1.83814 6.95151 2.14987C6.63977 2.46161 6.46464 2.88442 6.46464 3.32528V5.46249C6.46464 5.72479 6.25201 5.93742 5.98971 5.93742C5.72741 5.93742 5.51477 5.72479 5.51477 5.46249V3.32528C5.51477 2.6325 5.78998 1.96809 6.27985 1.47821C6.76972 0.988342 7.43413 0.713135 8.12691 0.713135C8.8197 0.713135 9.48411 0.988342 9.97398 1.47821C10.4639 1.96809 10.7391 2.6325 10.7391 3.32528V5.46249C10.7391 5.72479 10.5264 5.93742 10.2641 5.93742C10.0018 5.93742 9.78919 5.72479 9.78919 5.46249V3.32528C9.78919 2.88442 9.61406 2.46161 9.30232 2.14987C8.99058 1.83814 8.56778 1.66301 8.12691 1.66301Z" fill="#FF2C06"/>
</svg>
