<svg width="18" height="18" viewBox="0 0 18 18" fill="none" xmlns="http://www.w3.org/2000/svg">
<path fill-rule="evenodd" clip-rule="evenodd" d="M9.00008 9.20002C8.55135 9.20002 8.18758 9.56379 8.18758 10.0125C8.18758 10.4612 8.55135 10.825 9.00008 10.825C9.44881 10.825 9.81258 10.4612 9.81258 10.0125C9.81258 9.56379 9.44881 9.20002 9.00008 9.20002ZM7.10425 10.0125C7.10425 8.96548 7.95304 8.11668 9.00008 8.11668C10.0471 8.11668 10.8959 8.96548 10.8959 10.0125C10.8959 11.0596 10.0471 11.9084 9.00008 11.9084C7.95304 11.9084 7.10425 11.0596 7.10425 10.0125Z" fill="#FF2C06"/>
<path fill-rule="evenodd" clip-rule="evenodd" d="M8.99992 10.825C9.29907 10.825 9.54159 11.0675 9.54159 11.3667V12.9917C9.54159 13.2908 9.29907 13.5333 8.99992 13.5333C8.70076 13.5333 8.45825 13.2908 8.45825 12.9917V11.3667C8.45825 11.0675 8.70076 10.825 8.99992 10.825Z" fill="#FF2C06"/>
<path fill-rule="evenodd" clip-rule="evenodd" d="M2.5 7.03335C2.5 6.43504 2.98502 5.95001 3.58333 5.95001H14.4167C15.015 5.95001 15.5 6.43504 15.5 7.03335V14.6167C15.5 15.215 15.015 15.7 14.4167 15.7H3.58333C2.98502 15.7 2.5 15.215 2.5 14.6167V7.03335ZM14.4167 7.03335H3.58333V14.6167H14.4167V7.03335Z" fill="#FF2C06"/>
<path fill-rule="evenodd" clip-rule="evenodd" d="M8.99992 2.15835C8.49711 2.15835 8.0149 2.35808 7.65936 2.71362C7.30382 3.06916 7.10409 3.55137 7.10409 4.05418V6.49168C7.10409 6.79083 6.86157 7.03335 6.56242 7.03335C6.26326 7.03335 6.02075 6.79083 6.02075 6.49168V4.05418C6.02075 3.26405 6.33463 2.50629 6.89333 1.94759C7.45203 1.38889 8.20979 1.07501 8.99992 1.07501C9.79004 1.07501 10.5478 1.38889 11.1065 1.94759C11.6652 2.50629 11.9791 3.26405 11.9791 4.05418V6.49168C11.9791 6.79083 11.7366 7.03335 11.4374 7.03335C11.1383 7.03335 10.8958 6.79083 10.8958 6.49168V4.05418C10.8958 3.55137 10.696 3.06916 10.3405 2.71362C9.98494 2.35808 9.50272 2.15835 8.99992 2.15835Z" fill="#FF2C06"/>
</svg>
