<svg width="16" height="16" viewBox="0 0 16 16" fill="none" xmlns="http://www.w3.org/2000/svg">
<path fill-rule="evenodd" clip-rule="evenodd" d="M8.03581 7.83708C7.64236 7.83708 7.32341 8.15603 7.32341 8.54948C7.32341 8.94293 7.64236 9.26188 8.03581 9.26188C8.42926 9.26188 8.74821 8.94293 8.74821 8.54948C8.74821 8.15603 8.42926 7.83708 8.03581 7.83708ZM6.37354 8.54948C6.37354 7.63143 7.11776 6.88721 8.03581 6.88721C8.95386 6.88721 9.69808 7.63143 9.69808 8.54948C9.69808 9.46753 8.95386 10.2118 8.03581 10.2118C7.11776 10.2118 6.37354 9.46753 6.37354 8.54948Z" fill="#FF2C06"/>
<path fill-rule="evenodd" clip-rule="evenodd" d="M8.03573 9.26196C8.29803 9.26196 8.51066 9.4746 8.51066 9.7369V11.1617C8.51066 11.424 8.29803 11.6366 8.03573 11.6366C7.77343 11.6366 7.56079 11.424 7.56079 11.1617V9.7369C7.56079 9.4746 7.77343 9.26196 8.03573 9.26196Z" fill="#FF2C06"/>
<path fill-rule="evenodd" clip-rule="evenodd" d="M2.33643 5.93742C2.33643 5.41282 2.7617 4.98755 3.2863 4.98755H12.785C13.3096 4.98755 13.7349 5.41282 13.7349 5.93742V12.5865C13.7349 13.1111 13.3096 13.5364 12.785 13.5364H3.2863C2.7617 13.5364 2.33643 13.1111 2.33643 12.5865V5.93742ZM12.785 5.93742H3.2863V12.5865H12.785V5.93742Z" fill="#FF2C06"/>
<path fill-rule="evenodd" clip-rule="evenodd" d="M8.03573 1.66301C7.59487 1.66301 7.17206 1.83814 6.86032 2.14987C6.54859 2.46161 6.37345 2.88442 6.37345 3.32528V5.46249C6.37345 5.72479 6.16082 5.93742 5.89852 5.93742C5.63622 5.93742 5.42358 5.72479 5.42358 5.46249V3.32528C5.42358 2.6325 5.69879 1.96809 6.18866 1.47821C6.67854 0.988342 7.34294 0.713135 8.03573 0.713135C8.72851 0.713135 9.39292 0.988342 9.88279 1.47821C10.3727 1.96809 10.6479 2.6325 10.6479 3.32528V5.46249C10.6479 5.72479 10.4352 5.93742 10.1729 5.93742C9.91064 5.93742 9.698 5.72479 9.698 5.46249V3.32528C9.698 2.88442 9.52287 2.46161 9.21113 2.14987C8.8994 1.83814 8.47659 1.66301 8.03573 1.66301Z" fill="#FF2C06"/>
</svg>
