<svg width="18" height="18" viewBox="0 0 18 18" fill="none" xmlns="http://www.w3.org/2000/svg">
<path fill-rule="evenodd" clip-rule="evenodd" d="M8.71519 8.8422C8.282 8.8422 7.93083 9.19338 7.93083 9.62657C7.93083 10.0598 8.282 10.4109 8.71519 10.4109C9.14838 10.4109 9.49955 10.0598 9.49955 9.62657C9.49955 9.19338 9.14838 8.8422 8.71519 8.8422ZM6.88501 9.62657C6.88501 8.61579 7.70441 7.79639 8.71519 7.79639C9.72597 7.79639 10.5454 8.61579 10.5454 9.62657C10.5454 10.6373 9.72597 11.4567 8.71519 11.4567C7.70441 11.4567 6.88501 10.6373 6.88501 9.62657Z" fill="#FF2C06"/>
<path fill-rule="evenodd" clip-rule="evenodd" d="M8.71529 10.411C9.00409 10.411 9.2382 10.6451 9.2382 10.9339V12.5026C9.2382 12.7914 9.00409 13.0256 8.71529 13.0256C8.4265 13.0256 8.19238 12.7914 8.19238 12.5026V10.9339C8.19238 10.6451 8.4265 10.411 8.71529 10.411Z" fill="#FF2C06"/>
<path fill-rule="evenodd" clip-rule="evenodd" d="M2.44019 6.75065C2.44019 6.17306 2.90841 5.70483 3.486 5.70483H13.9442C14.5218 5.70483 14.99 6.17306 14.99 6.75065V14.0714C14.99 14.649 14.5218 15.1172 13.9442 15.1172H3.486C2.90841 15.1172 2.44019 14.649 2.44019 14.0714V6.75065ZM13.9442 6.75065H3.486V14.0714H13.9442V6.75065Z" fill="#FF2C06"/>
<path fill-rule="evenodd" clip-rule="evenodd" d="M8.71511 2.04447C8.22971 2.04447 7.7642 2.2373 7.42098 2.58052C7.07775 2.92375 6.88493 3.38926 6.88493 3.87465V6.22774C6.88493 6.51654 6.65081 6.75065 6.36202 6.75065C6.07323 6.75065 5.83911 6.51654 5.83911 6.22774V3.87465C5.83911 3.11189 6.14212 2.38037 6.68147 1.84102C7.22083 1.30166 7.95235 0.998657 8.71511 0.998657C9.47787 0.998657 10.2094 1.30166 10.7487 1.84102C11.2881 2.38037 11.5911 3.11189 11.5911 3.87465V6.22774C11.5911 6.51654 11.357 6.75065 11.0682 6.75065C10.7794 6.75065 10.5453 6.51654 10.5453 6.22774V3.87465C10.5453 3.38926 10.3525 2.92375 10.0092 2.58052C9.66602 2.2373 9.2005 2.04447 8.71511 2.04447Z" fill="#FF2C06"/>
</svg>
