<svg width="18" height="17" viewBox="0 0 18 17" fill="none" xmlns="http://www.w3.org/2000/svg">
<path fill-rule="evenodd" clip-rule="evenodd" d="M8.71592 8.42716C8.28273 8.42716 7.93156 8.77834 7.93156 9.21153C7.93156 9.64472 8.28273 9.99589 8.71592 9.99589C9.14911 9.99589 9.50029 9.64472 9.50029 9.21153C9.50029 8.77834 9.14911 8.42716 8.71592 8.42716ZM6.88574 9.21153C6.88574 8.20075 7.70514 7.38135 8.71592 7.38135C9.7267 7.38135 10.5461 8.20075 10.5461 9.21153C10.5461 10.2223 9.7267 11.0417 8.71592 11.0417C7.70514 11.0417 6.88574 10.2223 6.88574 9.21153Z" fill="#FF2C06"/>
<path fill-rule="evenodd" clip-rule="evenodd" d="M8.71602 9.99597C9.00482 9.99597 9.23893 10.2301 9.23893 10.5189V12.0876C9.23893 12.3764 9.00482 12.6105 8.71602 12.6105C8.42723 12.6105 8.19312 12.3764 8.19312 12.0876V10.5189C8.19312 10.2301 8.42723 9.99597 8.71602 9.99597Z" fill="#FF2C06"/>
<path fill-rule="evenodd" clip-rule="evenodd" d="M2.44092 6.33561C2.44092 5.75802 2.90915 5.28979 3.48674 5.28979H13.9449C14.5225 5.28979 14.9907 5.75802 14.9907 6.33561V13.6563C14.9907 14.2339 14.5225 14.7021 13.9449 14.7021H3.48674C2.90915 14.7021 2.44092 14.2339 2.44092 13.6563V6.33561ZM13.9449 6.33561H3.48674V13.6563H13.9449V6.33561Z" fill="#FF2C06"/>
<path fill-rule="evenodd" clip-rule="evenodd" d="M8.71584 1.62944C8.23045 1.62944 7.76493 1.82226 7.42171 2.16548C7.07848 2.50871 6.88566 2.97422 6.88566 3.45962V5.8127C6.88566 6.1015 6.65155 6.33561 6.36275 6.33561C6.07396 6.33561 5.83984 6.1015 5.83984 5.8127V3.45962C5.83984 2.69685 6.14285 1.96533 6.6822 1.42598C7.22156 0.886624 7.95308 0.583618 8.71584 0.583618C9.4786 0.583618 10.2101 0.886624 10.7495 1.42598C11.2888 1.96533 11.5918 2.69685 11.5918 3.45962V5.8127C11.5918 6.1015 11.3577 6.33561 11.0689 6.33561C10.7801 6.33561 10.546 6.1015 10.546 5.8127V3.45962C10.546 2.97422 10.3532 2.50871 10.01 2.16548C9.66675 1.82226 9.20124 1.62944 8.71584 1.62944Z" fill="#FF2C06"/>
</svg>
