<svg width="18" height="17" viewBox="0 0 18 17" fill="none" xmlns="http://www.w3.org/2000/svg">
<path fill-rule="evenodd" clip-rule="evenodd" d="M8.71519 8.42716C8.282 8.42716 7.93083 8.77834 7.93083 9.21153C7.93083 9.64472 8.282 9.99589 8.71519 9.99589C9.14838 9.99589 9.49955 9.64472 9.49955 9.21153C9.49955 8.77834 9.14838 8.42716 8.71519 8.42716ZM6.88501 9.21153C6.88501 8.20075 7.70441 7.38135 8.71519 7.38135C9.72597 7.38135 10.5454 8.20075 10.5454 9.21153C10.5454 10.2223 9.72597 11.0417 8.71519 11.0417C7.70441 11.0417 6.88501 10.2223 6.88501 9.21153Z" fill="#FF2C06"/>
<path fill-rule="evenodd" clip-rule="evenodd" d="M8.71529 9.99597C9.00409 9.99597 9.2382 10.2301 9.2382 10.5189V12.0876C9.2382 12.3764 9.00409 12.6105 8.71529 12.6105C8.4265 12.6105 8.19238 12.3764 8.19238 12.0876V10.5189C8.19238 10.2301 8.4265 9.99597 8.71529 9.99597Z" fill="#FF2C06"/>
<path fill-rule="evenodd" clip-rule="evenodd" d="M2.44019 6.33561C2.44019 5.75802 2.90841 5.28979 3.486 5.28979H13.9442C14.5218 5.28979 14.99 5.75802 14.99 6.33561V13.6563C14.99 14.2339 14.5218 14.7021 13.9442 14.7021H3.486C2.90841 14.7021 2.44019 14.2339 2.44019 13.6563V6.33561ZM13.9442 6.33561H3.486V13.6563H13.9442V6.33561Z" fill="#FF2C06"/>
<path fill-rule="evenodd" clip-rule="evenodd" d="M8.71511 1.62944C8.22971 1.62944 7.7642 1.82226 7.42098 2.16548C7.07775 2.50871 6.88493 2.97422 6.88493 3.45962V5.8127C6.88493 6.1015 6.65081 6.33561 6.36202 6.33561C6.07323 6.33561 5.83911 6.1015 5.83911 5.8127V3.45962C5.83911 2.69685 6.14212 1.96533 6.68147 1.42598C7.22083 0.886624 7.95235 0.583618 8.71511 0.583618C9.47787 0.583618 10.2094 0.886624 10.7487 1.42598C11.2881 1.96533 11.5911 2.69685 11.5911 3.45962V5.8127C11.5911 6.1015 11.357 6.33561 11.0682 6.33561C10.7794 6.33561 10.5453 6.1015 10.5453 5.8127V3.45962C10.5453 2.97422 10.3525 2.50871 10.0092 2.16548C9.66602 1.82226 9.2005 1.62944 8.71511 1.62944Z" fill="#FF2C06"/>
</svg>
