<svg width="108" height="108" viewBox="0 0 108 108" fill="none" xmlns="http://www.w3.org/2000/svg">
<path d="M66.5357 69.4285C71.3287 69.4285 75.2142 73.314 75.2142 78.107V83.9004L75.1838 84.3187C73.9852 92.5198 66.6187 96.4633 54.2576 96.4633C41.941 96.4633 34.457 92.5649 32.8414 84.4581L32.7857 83.8927V78.107C32.7857 73.314 36.6712 69.4285 41.4642 69.4285H66.5357ZM66.5357 75.2142H41.4642C39.8666 75.2142 38.5714 76.5094 38.5714 78.107V83.5856C39.6506 88.2158 44.5524 90.6776 54.2576 90.6776C63.9624 90.6776 68.6441 88.2425 69.4285 83.6735V78.107C69.4285 76.5094 68.1333 75.2142 66.5357 75.2142ZM70.3679 46.2814L91.6071 46.2856C96.4001 46.2856 100.286 50.1711 100.286 54.9642V60.7575L100.255 61.1759C99.0566 69.3769 91.6901 73.3205 79.329 73.3205L78.1145 73.3075C76.9766 70.5551 74.8868 68.3015 72.2572 66.9502C74.2429 67.3394 76.5954 67.5348 79.329 67.5348C89.0338 67.5348 93.7156 65.0996 94.4999 60.5306V54.9642C94.4999 53.3665 93.2048 52.0713 91.6071 52.0713H71.3571C71.3571 50.0411 71.0085 48.0922 70.3679 46.2814ZM16.3928 46.2856L37.6319 46.2814C37.0981 47.7904 36.7671 49.3953 36.6716 51.0632L36.6428 52.0713H16.3928C14.7951 52.0713 13.4999 53.3665 13.4999 54.9642V60.4428C14.5791 65.0729 19.4809 67.5348 29.1861 67.5348C31.5856 67.5348 33.6779 67.3859 35.4803 67.0927C32.9702 68.4558 30.9804 70.6528 29.8787 73.311L29.1861 73.3205C16.8696 73.3205 9.38554 69.4221 7.77002 61.3153L7.71423 60.7499V54.9642C7.71423 50.1711 11.5998 46.2856 16.3928 46.2856ZM53.9999 38.5713C61.4558 38.5713 67.4999 44.6155 67.4999 52.0713C67.4999 59.5272 61.4558 65.5713 53.9999 65.5713C46.5441 65.5713 40.4999 59.5272 40.4999 52.0713C40.4999 44.6155 46.5441 38.5713 53.9999 38.5713ZM53.9999 44.357C49.7395 44.357 46.2857 47.8108 46.2857 52.0713C46.2857 56.3318 49.7395 59.7856 53.9999 59.7856C58.2604 59.7856 61.7142 56.3318 61.7142 52.0713C61.7142 47.8108 58.2604 44.357 53.9999 44.357ZM79.0714 15.4285C86.5272 15.4285 92.5714 21.4726 92.5714 28.9285C92.5714 36.3843 86.5272 42.4285 79.0714 42.4285C71.6155 42.4285 65.5714 36.3843 65.5714 28.9285C65.5714 21.4726 71.6155 15.4285 79.0714 15.4285ZM28.9285 15.4285C36.3844 15.4285 42.4285 21.4726 42.4285 28.9285C42.4285 36.3843 36.3844 42.4285 28.9285 42.4285C21.4727 42.4285 15.4285 36.3843 15.4285 28.9285C15.4285 21.4726 21.4727 15.4285 28.9285 15.4285ZM79.0714 21.2142C74.8109 21.2142 71.3571 24.668 71.3571 28.9285C71.3571 33.1889 74.8109 36.6428 79.0714 36.6428C83.3319 36.6428 86.7857 33.1889 86.7857 28.9285C86.7857 24.668 83.3319 21.2142 79.0714 21.2142ZM28.9285 21.2142C24.668 21.2142 21.2142 24.668 21.2142 28.9285C21.2142 33.1889 24.668 36.6428 28.9285 36.6428C33.189 36.6428 36.6428 33.1889 36.6428 28.9285C36.6428 24.668 33.189 21.2142 28.9285 21.2142Z" fill="#FF2C06"/>
</svg>
