<svg width="114" height="114" viewBox="0 0 114 114" fill="none" xmlns="http://www.w3.org/2000/svg">
<g clip-path="url(#clip0_701_512)">
<path d="M11.3372 99.2465C11.5917 99.2465 11.8482 99.1953 12.0953 99.0869C18.1562 96.4477 28.3915 95.0741 42.5275 95.0018L43.8993 97.7491C44.3704 98.6879 45.5124 99.0715 46.4492 98.5984C47.3876 98.129 47.7697 96.989 47.2984 96.0505L45.4002 92.2504C45.0771 91.6063 44.4199 91.1997 43.6998 91.1997C28.2167 91.1997 17.3809 92.6398 10.577 95.6021C9.61558 96.022 9.17672 97.1411 9.59465 98.1043C9.90659 98.819 10.6039 99.2465 11.3372 99.2465Z" fill="#FF2C06"/>
<path d="M110.2 102.6H106.4V93.1C106.4 92.5966 106.198 92.1121 105.843 91.7567L94.4281 80.3434C94.7852 79.6004 95.0001 78.7779 95.0001 77.9C95.0001 74.7574 92.4426 72.2 89.3001 72.2C86.1575 72.2 83.6001 74.7574 83.6001 77.9C83.6001 81.0425 86.1575 83.6 89.3001 83.6C90.1778 83.6 90.9987 83.3853 91.7415 83.03L102.6 93.8865V102.6H3.80007C1.70421 102.6 0 104.304 0 106.4V112.1C0 113.149 0.851215 114 1.89993 114C2.94864 114 3.79985 113.149 3.79985 112.1V106.4H110.2V112.1C110.2 113.149 111.049 114 112.1 114C113.151 114 114 113.149 114 112.1V106.4C114 104.304 112.294 102.6 110.2 102.6ZM89.3001 79.8001C88.2514 79.8001 87.4001 78.9471 87.4001 77.9002C87.4001 76.8532 88.2514 76.0003 89.3001 76.0003C90.3488 76.0003 91.2 76.8532 91.2 77.9002C91.2 78.9471 90.3488 79.8001 89.3001 79.8001Z" fill="#FF2C06"/>
<path d="M27.1263 56.8328C28.5114 60.4389 33.0941 72.0669 36.4193 77.0544L36.7194 77.5084C39.159 81.2076 43.2401 87.3997 57 87.3997C70.758 87.3997 74.841 81.2076 77.2807 77.5084L77.5808 77.0544C80.9058 72.0669 85.4867 60.4389 86.8738 56.8328C89.3553 56.2154 91.2001 53.9694 91.2001 51.3V43.7001C91.2001 41.2226 89.6116 39.1096 87.4 38.3249V28.5C87.4 20.9987 83.4498 7.14215 68.8389 5.80443C68.8104 4.90757 68.514 4.18571 68.1834 3.65179C66.3158 0.632789 61.0718 0 57 0C23.1915 0 22.8 31.977 22.8 32.3001C22.8 33.3488 23.6493 34.1982 24.6962 34.1982H24.7C25.7469 34.1982 26.5961 33.3508 26.5999 32.3021C26.6037 31.1394 27.0312 3.80007 56.9998 3.80007C62.373 3.80007 64.5258 4.96279 64.9513 5.65057C65.0103 5.74743 65.1718 6.00771 64.7993 6.75072C64.5047 7.33964 64.537 8.03901 64.8828 8.59943C65.2305 9.15808 65.8404 9.50007 66.4997 9.50007C83.3452 9.50007 83.5977 27.7267 83.5997 28.5V39.9C83.5997 40.9487 84.4489 41.7999 85.4996 41.7999C86.5483 41.7999 87.3995 42.6529 87.3995 43.6999V51.3C87.3995 52.3469 86.5483 53.1999 85.4996 53.1999C84.7074 53.1999 83.9987 53.692 83.7192 54.433C83.6643 54.5831 78.0535 69.4944 74.4187 74.9454L74.1072 75.4166C71.831 78.8709 68.7111 83.5999 56.9996 83.5999C45.2861 83.5999 42.1682 78.8709 39.892 75.4166L39.5805 74.9454C35.9459 69.4944 30.3352 54.5831 30.2782 54.433C30.0008 53.692 29.292 53.1999 28.4998 53.1999C27.4529 53.1999 26.5999 52.3469 26.5999 51.3V43.7001C26.5999 43.1851 26.8052 42.7177 27.1394 42.3757C27.8292 43.9243 29.237 45.317 31.6025 45.5526L38.1043 50.4281C38.6118 54.1291 41.7601 57 45.6 57H49.4001C53.5914 57 57 53.5914 57 49.4001C57 53.5914 60.4087 57 64.6 57H68.4001C72.238 57 75.3901 54.1291 75.8956 50.4261L82.84 45.2201C83.6798 44.5911 83.8508 43.3999 83.2201 42.5601C82.591 41.7202 81.3998 41.5474 80.56 42.18L75.717 45.8129C74.9931 43.4968 72.8536 41.8001 70.3 41.8001H62.7001C59.5575 41.8001 57 44.3576 57 47.5002C57 44.3576 54.4426 41.8001 51.3 41.8001H43.7001C41.1485 41.8001 39.009 43.4968 38.2833 45.8129L34.6581 43.094C36.1534 39.4803 37.5081 34.1354 37.8919 30.383C43.8807 30.2766 61.2069 29.5452 68.9151 24.7342C70.6631 31.4829 76.2738 37.1622 76.5568 37.4434C77.2996 38.1862 78.5006 38.1862 79.2434 37.4434C79.9862 36.7004 79.9862 35.4996 79.2434 34.7569C79.173 34.6865 72.2001 27.6356 72.2001 20.9001C72.2001 20.0471 71.6301 19.2965 70.8074 19.0685C69.9885 18.8405 69.1088 19.1901 68.6719 19.9215C65.9054 24.5289 47.96 26.6001 36.1002 26.6001C35.0515 26.6001 34.2003 27.4513 34.2003 28.5C34.2003 31.5838 32.743 37.7436 31.1926 41.5341C30.5866 41.1694 30.4156 40.4892 30.4004 39.9C30.4004 38.8513 29.5492 38.0001 28.5005 38.0001C25.3579 38.0001 22.8005 40.5575 22.8005 43.7001V51.3C22.8 53.9694 24.645 56.2154 27.1263 56.8328ZM60.8001 47.4999C60.8001 46.453 61.6513 45.6 62.7001 45.6H70.3C71.3487 45.6 72.1999 46.453 72.1999 47.4999V49.3999C72.1999 51.4955 70.4957 53.1999 68.3998 53.1999H64.5998C62.5041 53.1999 60.7997 51.4957 60.7997 49.3999V47.4999H60.8001ZM41.8 47.4999C41.8 46.453 42.653 45.6 43.6999 45.6H51.3C52.347 45.6 53.2 46.453 53.2 47.4999V49.3999C53.2 51.4955 51.4958 53.1999 49.3999 53.1999H45.6C43.5044 53.1999 41.8 51.4957 41.8 49.3999V47.4999Z" fill="#FF2C06"/>
<path d="M66.498 68.4058C66.5 67.3589 65.6526 66.5059 64.6057 66.5001C64.5696 66.5001 61.1723 66.462 57.8492 64.7997C57.3152 64.5336 56.6845 64.5336 56.1505 64.7997C52.8274 66.4622 49.4283 66.5001 49.3998 66.5001C48.3511 66.5001 47.4999 67.3513 47.4999 68.4C47.4999 69.4487 48.3511 70.2999 49.3998 70.2999C49.5612 70.2999 53.1504 70.279 56.9997 68.5957C60.8472 70.279 64.4382 70.2999 64.5997 70.2999C65.6468 70.2999 66.4942 69.4525 66.498 68.4058Z" fill="#FF2C06"/>
<path d="M70.2943 91.278C69.5838 91.2818 68.9321 91.6808 68.6071 92.3154L66.7071 96.0355C66.2302 96.9702 66.6027 98.116 67.5356 98.593C67.8111 98.7335 68.1076 98.8 68.3982 98.8C69.0898 98.8 69.7566 98.422 70.0931 97.7645L71.4631 95.0779C81.8484 95.1064 90.2123 95.8835 96.3416 97.3884C97.3638 97.6411 98.3898 97.0161 98.6387 95.9977C98.8894 94.9775 98.2682 93.9495 97.248 93.6988C90.5939 92.0627 81.569 91.2115 70.2943 91.278Z" fill="#FF2C06"/>
<path d="M55.1001 93.0999V96.9C55.1001 97.9487 55.9513 98.7999 57 98.7999C58.0487 98.7999 58.8999 97.9487 58.8999 96.9V93.0999C58.8999 92.0512 58.0487 91.2 57 91.2C55.9513 91.2 55.1001 92.0512 55.1001 93.0999Z" fill="#FF2C06"/>
<path d="M55.1001 72.2002C54.0514 72.2002 53.2002 73.0514 53.2002 74.1001C53.2002 75.1488 54.0514 76 55.1001 76H58.9002C59.9509 76 60.8001 75.1488 60.8001 74.1001C60.8001 73.0514 59.9509 72.2002 58.9002 72.2002H55.1001Z" fill="#FF2C06"/>
</g>
<defs>
<clipPath id="clip0_701_512">
<rect width="114" height="114" fill="white"/>
</clipPath>
</defs>
</svg>
