<svg width="120" height="120" viewBox="0 0 120 120" fill="none" xmlns="http://www.w3.org/2000/svg">
<g clip-path="url(#clip0_439_1140)">
<path d="M55 95V80C55 76.0217 53.4196 72.2064 50.6066 69.3934C47.7936 66.5803 43.9782 65 40 65H25C21.0218 65 17.2064 66.5803 14.3934 69.3934C11.5804 72.2064 10 76.0217 10 80V95C10 98.9782 11.5804 102.794 14.3934 105.607C17.2064 108.42 21.0218 110 25 110H40C43.9782 110 47.7936 108.42 50.6066 105.607C53.4196 102.794 55 98.9782 55 95ZM15 95V80C15 77.3478 16.0536 74.8043 17.9289 72.9289C19.8043 71.0536 22.3478 70 25 70H40C42.6522 70 45.1957 71.0536 47.0711 72.9289C48.9464 74.8043 50 77.3478 50 80V95C50 97.6522 48.9464 100.196 47.0711 102.071C45.1957 103.946 42.6522 105 40 105H25C22.3478 105 19.8043 103.946 17.9289 102.071C16.0536 100.196 15 97.6522 15 95ZM110 80C110 76.0217 108.42 72.2064 105.607 69.3934C102.794 66.5803 98.9782 65 95 65H80C76.0217 65 72.2064 66.5803 69.3934 69.3934C66.5803 72.2064 65 76.0217 65 80V95C65 98.9782 66.5803 102.794 69.3934 105.607C72.2064 108.42 76.0217 110 80 110H95C98.9782 110 102.794 108.42 105.607 105.607C108.42 102.794 110 98.9782 110 95V80ZM105 95C105 97.6522 103.946 100.196 102.071 102.071C100.196 103.946 97.6522 105 95 105H80C77.3478 105 74.8043 103.946 72.9289 102.071C71.0536 100.196 70 97.6522 70 95V80C70 77.3478 71.0536 74.8043 72.9289 72.9289C74.8043 71.0536 77.3478 70 80 70H95C97.6522 70 100.196 71.0536 102.071 72.9289C103.946 74.8043 105 77.3478 105 80V95ZM110 25C110 21.0218 108.42 17.2064 105.607 14.3934C102.794 11.5804 98.9782 10 95 10H80C76.0217 10 72.2064 11.5804 69.3934 14.3934C66.5803 17.2064 65 21.0218 65 25V40C65 43.9782 66.5803 47.7936 69.3934 50.6066C72.2064 53.4196 76.0217 55 80 55H95C98.9782 55 102.794 53.4196 105.607 50.6066C108.42 47.7936 110 43.9782 110 40V25ZM105 40C105 42.6522 103.946 45.1957 102.071 47.0711C100.196 48.9464 97.6522 50 95 50H80C77.3478 50 74.8043 48.9464 72.9289 47.0711C71.0536 45.1957 70 42.6522 70 40V25C70 22.3478 71.0536 19.8043 72.9289 17.9289C74.8043 16.0536 77.3478 15 80 15H95C97.6522 15 100.196 16.0536 102.071 17.9289C103.946 19.8043 105 22.3478 105 25V40ZM10 25V40C10 43.9782 11.5804 47.7936 14.3934 50.6066C17.2064 53.4196 21.0218 55 25 55H40C43.9782 55 47.7936 53.4196 50.6066 50.6066C53.4196 47.7936 55 43.9782 55 40V25C55 21.0218 53.4196 17.2064 50.6066 14.3934C47.7936 11.5804 43.9782 10 40 10H25C21.0218 10 17.2064 11.5804 14.3934 14.3934C11.5804 17.2064 10 21.0218 10 25ZM15 25C15 22.3478 16.0536 19.8043 17.9289 17.9289C19.8043 16.0536 22.3478 15 25 15H40C42.6522 15 45.1957 16.0536 47.0711 17.9289C48.9464 19.8043 50 22.3478 50 25V40C50 42.6522 48.9464 45.1957 47.0711 47.0711C45.1957 48.9464 42.6522 50 40 50H25C22.3478 50 19.8043 48.9464 17.9289 47.0711C16.0536 45.1957 15 42.6522 15 40V25ZM47.5 81.19L30.285 98.34L21.175 89.23L24.865 85.54L30.285 90.98L43.81 77.5L47.5 81.19Z" fill="#FF2C06"/>
</g>
<defs>
<clipPath id="clip0_439_1140">
<rect width="120" height="120" fill="white"/>
</clipPath>
</defs>
</svg>
