<svg width="137" height="38" viewBox="0 0 137 38" fill="none" xmlns="http://www.w3.org/2000/svg">
<path opacity="0.25" fill-rule="evenodd" clip-rule="evenodd" d="M118.5 36.4287C128.165 36.4287 136 28.5937 136 18.9287C136 9.26373 128.165 1.42871 118.5 1.42871C108.835 1.42871 101 9.26373 101 18.9287C101 28.5937 108.835 36.4287 118.5 36.4287Z" stroke="white" stroke-width="1.5"/>
<path d="M124.22 15.6934C124.139 15.6016 124.008 15.5785 123.901 15.6351C123.834 15.6703 123.708 15.7165 123.559 15.7621C123.747 15.5049 123.899 15.2169 123.965 14.958C123.994 14.8464 123.952 14.7288 123.86 14.6623C123.768 14.5964 123.646 14.5964 123.554 14.6623C123.409 14.7662 122.71 15.0784 122.268 15.1795C121.27 14.2798 120.107 14.1864 118.899 14.9118C117.917 15.5016 117.703 16.7008 117.745 17.4318C115.497 17.2092 114.1 15.988 113.313 14.9773C113.258 14.9064 113.169 14.869 113.086 14.8745C112.999 14.8811 112.919 14.9311 112.875 15.0086C112.503 15.6544 112.4 16.3683 112.577 17.0735C112.675 17.4582 112.845 17.7973 113.042 18.0721C112.947 18.0243 112.856 17.9644 112.77 17.8929C112.691 17.8259 112.58 17.8132 112.487 17.8577C112.394 17.9034 112.334 18.0001 112.334 18.1062C112.334 19.317 113.071 20.1249 113.758 20.547C113.647 20.5332 113.531 20.508 113.414 20.4711C113.314 20.4398 113.205 20.4711 113.135 20.5525C113.066 20.6333 113.049 20.7487 113.093 20.8471C113.479 21.7259 114.211 22.3305 115.117 22.5498C114.326 23.0274 113.267 23.2615 112.298 23.1466C112.172 23.1285 112.053 23.2104 112.013 23.3346C111.974 23.4588 112.025 23.5951 112.136 23.6589C113.607 24.508 114.936 24.8114 116.085 24.8114C117.757 24.8114 119.047 24.1694 119.833 23.6325C121.95 22.187 123.27 19.5918 123.086 17.2697C123.426 17.0119 123.933 16.5359 124.248 16.0243C124.313 15.9209 124.301 15.7846 124.22 15.6934Z" fill="white"/>
<path opacity="0.25" fill-rule="evenodd" clip-rule="evenodd" d="M68.5 36.4287C78.165 36.4287 86 28.5937 86 18.9287C86 9.26373 78.165 1.42871 68.5 1.42871C58.835 1.42871 51 9.26373 51 18.9287C51 28.5937 58.835 36.4287 68.5 36.4287Z" stroke="white" stroke-width="1.5"/>
<path d="M70.0933 14.4495H71.7017C71.8497 14.4495 71.9698 14.3363 71.9698 14.1969V12.6813C71.9698 12.5419 71.8497 12.4287 71.7017 12.4287H70.0933C68.4678 12.4287 67.1446 13.675 67.1446 15.2073V16.9755H65.2682C65.1202 16.9755 65.0001 17.0886 65.0001 17.2281V18.7437C65.0001 18.8831 65.1202 18.9963 65.2682 18.9963H67.1446V24.3008C67.1446 24.4402 67.2647 24.5534 67.4127 24.5534H69.0211C69.169 24.5534 69.2891 24.4402 69.2891 24.3008V18.9963H71.1656C71.2808 18.9963 71.3832 18.9265 71.4202 18.8235L71.9564 17.3079C71.9837 17.2311 71.9698 17.1462 71.9194 17.08C71.8684 17.0144 71.788 16.9755 71.7017 16.9755H69.2891V15.2073C69.2891 14.7895 69.6499 14.4495 70.0933 14.4495Z" fill="white"/>
<path opacity="0.25" fill-rule="evenodd" clip-rule="evenodd" d="M18.5 36.4287C28.165 36.4287 36 28.5937 36 18.9287C36 9.26373 28.165 1.42871 18.5 1.42871C8.83502 1.42871 1 9.26373 1 18.9287C1 28.5937 8.83502 36.4287 18.5 36.4287Z" stroke="white" stroke-width="1.5"/>
<path d="M14.4835 15.3958C15.3029 15.3958 15.9671 14.7316 15.9671 13.9123C15.9671 13.0929 15.3029 12.4287 14.4835 12.4287C13.6642 12.4287 13 13.0929 13 13.9123C13 14.7316 13.6642 15.3958 14.4835 15.3958Z" fill="white"/>
<path d="M15.7198 16.3867H13.2473C13.1108 16.3867 13 16.4975 13 16.634V24.0517C13 24.1882 13.1108 24.299 13.2473 24.299H15.7198C15.8563 24.299 15.9671 24.1882 15.9671 24.0517V16.634C15.9671 16.4975 15.8563 16.3867 15.7198 16.3867Z" fill="white"/>
<path d="M23.0883 15.9756C22.0315 15.6136 20.7097 15.9316 19.917 16.5018C19.8898 16.3954 19.7928 16.3163 19.6776 16.3163H17.205C17.0685 16.3163 16.9578 16.4271 16.9578 16.5636V23.9813C16.9578 24.1178 17.0685 24.2286 17.205 24.2286H19.6776C19.8141 24.2286 19.9249 24.1178 19.9249 23.9813V18.6504C20.3244 18.3063 20.8392 18.1965 21.2606 18.3755C21.669 18.5481 21.9029 18.9694 21.9029 19.5307V23.9813C21.9029 24.1178 22.0137 24.2286 22.1502 24.2286H24.6228C24.7593 24.2286 24.87 24.1178 24.87 23.9813V19.0327C24.8418 17.0007 23.8859 16.2486 23.0883 15.9756Z" fill="white"/>
</svg>
