<svg width="29" height="29" viewBox="0 0 29 29" fill="none" xmlns="http://www.w3.org/2000/svg">
<path d="M13.6819 3.32328C13.9799 2.4062 15.2773 2.4062 15.5753 3.32328L17.5339 9.3512C17.6671 9.76133 18.0493 10.039 18.4805 10.039H24.8187C25.783 10.039 26.1839 11.2729 25.4038 11.8397L20.2761 15.5652C19.9272 15.8187 19.7812 16.2679 19.9145 16.6781L21.8731 22.706C22.1711 23.6231 21.1214 24.3857 20.3413 23.8189L15.2137 20.0934C14.8648 19.84 14.3924 19.84 14.0435 20.0934L8.91584 23.8189C8.13573 24.3857 7.08609 23.6231 7.38407 22.706L9.34266 16.6781C9.47592 16.2679 9.32993 15.8187 8.98105 15.5652L3.8534 11.8397C3.07328 11.2729 3.47421 10.039 4.43848 10.039H10.7766C11.2078 10.039 11.59 9.76133 11.7233 9.3512L13.6819 3.32328Z" fill="#FF2C06"/>
</svg>
