<svg width="29" height="29" viewBox="0 0 29 29" fill="none" xmlns="http://www.w3.org/2000/svg">
<path d="M13.9247 3.32328C14.2227 2.4062 15.5201 2.4062 15.8181 3.32328L17.7767 9.3512C17.9099 9.76133 18.2921 10.039 18.7233 10.039H25.0615C26.0258 10.039 26.4267 11.2729 25.6466 11.8397L20.5189 15.5652C20.17 15.8187 20.024 16.2679 20.1573 16.6781L22.1159 22.706C22.4139 23.6231 21.3642 24.3857 20.5841 23.8189L15.4565 20.0934C15.1076 19.84 14.6352 19.84 14.2863 20.0934L9.15864 23.8189C8.37853 24.3857 7.32889 23.6231 7.62686 22.706L9.58545 16.6781C9.71871 16.2679 9.57273 15.8187 9.22385 15.5652L4.0962 11.8397C3.31608 11.2729 3.71701 10.039 4.68128 10.039H11.0194C11.4506 10.039 11.8328 9.76133 11.9661 9.3512L13.9247 3.32328Z" fill="#FF2C06"/>
</svg>
