<svg width="29" height="29" viewBox="0 0 29 29" fill="none" xmlns="http://www.w3.org/2000/svg">
<path d="M13.2962 3.32328C13.5941 2.4062 14.8916 2.4062 15.1895 3.32328L17.1481 9.3512C17.2814 9.76133 17.6636 10.039 18.0948 10.039H24.4329C25.3972 10.039 25.7981 11.2729 25.018 11.8397L19.8904 15.5652C19.5415 15.8187 19.3955 16.2679 19.5288 16.6781L21.4874 22.706C21.7853 23.6231 20.7357 24.3857 19.9556 23.8189L14.8279 20.0934C14.479 19.84 14.0066 19.84 13.6578 20.0934L8.5301 23.8189C7.74999 24.3857 6.70035 23.6231 6.99832 22.706L8.95691 16.6781C9.09017 16.2679 8.94419 15.8187 8.59531 15.5652L3.46766 11.8397C2.68754 11.2729 3.08847 10.039 4.05274 10.039H10.3909C10.8221 10.039 11.2043 9.76133 11.3376 9.3512L13.2962 3.32328Z" fill="#FF2C06"/>
</svg>
