<svg width="28" height="29" viewBox="0 0 28 29" fill="none" xmlns="http://www.w3.org/2000/svg">
<path d="M13.0532 3.32328C13.3512 2.4062 14.6486 2.4062 14.9466 3.32328L16.9052 9.3512C17.0385 9.76133 17.4207 10.039 17.8519 10.039H24.19C25.1543 10.039 25.5552 11.2729 24.7751 11.8397L19.6474 15.5652C19.2986 15.8187 19.1526 16.2679 19.2858 16.6781L21.2444 22.706C21.5424 23.6231 20.4928 24.3857 19.7127 23.8189L14.585 20.0934C14.2361 19.84 13.7637 19.84 13.4148 20.0934L8.28718 23.8189C7.50707 24.3857 6.45743 23.6231 6.7554 22.706L8.71399 16.6781C8.84725 16.2679 8.70127 15.8187 8.35239 15.5652L3.22474 11.8397C2.44462 11.2729 2.84555 10.039 3.80982 10.039H10.148C10.5792 10.039 10.9614 9.76133 11.0946 9.3512L13.0532 3.32328Z" fill="#FF2C06"/>
</svg>
