<svg width="29" height="29" viewBox="0 0 29 29" fill="none" xmlns="http://www.w3.org/2000/svg">
<path d="M13.1818 3.32328C13.4798 2.4062 14.7772 2.4062 15.0752 3.32328L17.0338 9.3512C17.1671 9.76133 17.5493 10.039 17.9805 10.039H24.3186C25.2829 10.039 25.6838 11.2729 24.9037 11.8397L19.7761 15.5652C19.4272 15.8187 19.2812 16.2679 19.4144 16.6781L21.373 22.706C21.671 23.6231 20.6214 24.3857 19.8413 23.8189L14.7136 20.0934C14.3647 19.84 13.8923 19.84 13.5434 20.0934L8.41578 23.8189C7.63567 24.3857 6.58603 23.6231 6.88401 22.706L8.8426 16.6781C8.97585 16.2679 8.82987 15.8187 8.48099 15.5652L3.35334 11.8397C2.57322 11.2729 2.97415 10.039 3.93842 10.039H10.2766C10.7078 10.039 11.09 9.76133 11.2232 9.3512L13.1818 3.32328Z" fill="#FF2C06"/>
</svg>
