<svg width="29" height="29" viewBox="0 0 29 29" fill="none" xmlns="http://www.w3.org/2000/svg">
<path d="M13.4247 3.32328C13.7227 2.4062 15.0201 2.4062 15.3181 3.32328L17.2767 9.3512C17.4099 9.76133 17.7921 10.039 18.2233 10.039H24.5615C25.5258 10.039 25.9267 11.2729 25.1466 11.8397L20.0189 15.5652C19.67 15.8187 19.524 16.2679 19.6573 16.6781L21.6159 22.706C21.9139 23.6231 20.8642 24.3857 20.0841 23.8189L14.9565 20.0934C14.6076 19.84 14.1352 19.84 13.7863 20.0934L8.65864 23.8189C7.87853 24.3857 6.82889 23.6231 7.12686 22.706L9.08545 16.6781C9.21871 16.2679 9.07273 15.8187 8.72385 15.5652L3.5962 11.8397C2.81608 11.2729 3.21701 10.039 4.18128 10.039H10.5194C10.9506 10.039 11.3328 9.76133 11.4661 9.3512L13.4247 3.32328Z" fill="#FF2C06"/>
</svg>
