<svg width="29" height="29" viewBox="0 0 29 29" fill="none" xmlns="http://www.w3.org/2000/svg">
<path d="M13.3104 3.32328C13.6084 2.4062 14.9058 2.4062 15.2038 3.32328L17.1624 9.3512C17.2957 9.76133 17.6779 10.039 18.1091 10.039H24.4472C25.4115 10.039 25.8124 11.2729 25.0323 11.8397L19.9047 15.5652C19.5558 15.8187 19.4098 16.2679 19.543 16.6781L21.5016 22.706C21.7996 23.6231 20.75 24.3857 19.9699 23.8189L14.8422 20.0934C14.4933 19.84 14.0209 19.84 13.672 20.0934L8.54438 23.8189C7.76427 24.3857 6.71463 23.6231 7.01261 22.706L8.9712 16.6781C9.10446 16.2679 8.95847 15.8187 8.60959 15.5652L3.48194 11.8397C2.70182 11.2729 3.10275 10.039 4.06702 10.039H10.4052C10.8364 10.039 11.2186 9.76133 11.3518 9.3512L13.3104 3.32328Z" fill="#FF2C06"/>
</svg>
