<svg width="29" height="29" viewBox="0 0 29 29" fill="none" xmlns="http://www.w3.org/2000/svg">
<path d="M13.8104 3.32328C14.1084 2.4062 15.4058 2.4062 15.7038 3.32328L17.6624 9.3512C17.7957 9.76133 18.1779 10.039 18.6091 10.039H24.9472C25.9115 10.039 26.3124 11.2729 25.5323 11.8397L20.4047 15.5652C20.0558 15.8187 19.9098 16.2679 20.043 16.6781L22.0016 22.706C22.2996 23.6231 21.25 24.3857 20.4699 23.8189L15.3422 20.0934C14.9933 19.84 14.5209 19.84 14.172 20.0934L9.04438 23.8189C8.26427 24.3857 7.21463 23.6231 7.51261 22.706L9.4712 16.6781C9.60446 16.2679 9.45847 15.8187 9.10959 15.5652L3.98194 11.8397C3.20182 11.2729 3.60275 10.039 4.56702 10.039H10.9052C11.3364 10.039 11.7186 9.76133 11.8518 9.3512L13.8104 3.32328Z" fill="#FF2C06"/>
</svg>
