<svg width="28" height="29" viewBox="0 0 28 29" fill="none" xmlns="http://www.w3.org/2000/svg">
<path d="M13.0533 3.32328C13.3513 2.4062 14.6487 2.4062 14.9467 3.32328L16.9053 9.3512C17.0385 9.76133 17.4207 10.039 17.8519 10.039H24.1901C25.1544 10.039 25.5553 11.2729 24.7752 11.8397L19.6475 15.5652C19.2986 15.8187 19.1526 16.2679 19.2859 16.6781L21.2445 22.706C21.5425 23.6231 20.4928 24.3857 19.7127 23.8189L14.5851 20.0934C14.2362 19.84 13.7638 19.84 13.4149 20.0934L8.28724 23.8189C7.50713 24.3857 6.45749 23.6231 6.75547 22.706L8.71406 16.6781C8.84731 16.2679 8.70133 15.8187 8.35245 15.5652L3.2248 11.8397C2.44468 11.2729 2.84561 10.039 3.80988 10.039H10.148C10.5792 10.039 10.9614 9.76133 11.0947 9.3512L13.0533 3.32328Z" fill="#FF2C06"/>
</svg>
