<svg width="29" height="29" viewBox="0 0 29 29" fill="none" xmlns="http://www.w3.org/2000/svg">
<path d="M13.1819 3.32328C13.4799 2.4062 14.7773 2.4062 15.0753 3.32328L17.0339 9.3512C17.1671 9.76133 17.5493 10.039 17.9805 10.039H24.3187C25.283 10.039 25.6839 11.2729 24.9038 11.8397L19.7761 15.5652C19.4272 15.8187 19.2812 16.2679 19.4145 16.6781L21.3731 22.706C21.6711 23.6231 20.6214 24.3857 19.8413 23.8189L14.7137 20.0934C14.3648 19.84 13.8924 19.84 13.5435 20.0934L8.41584 23.8189C7.63573 24.3857 6.58609 23.6231 6.88407 22.706L8.84266 16.6781C8.97592 16.2679 8.82993 15.8187 8.48105 15.5652L3.3534 11.8397C2.57328 11.2729 2.97421 10.039 3.93848 10.039H10.2766C10.7078 10.039 11.09 9.76133 11.2233 9.3512L13.1819 3.32328Z" fill="#FF2C06"/>
</svg>
