<svg width="29" height="29" viewBox="0 0 29 29" fill="none" xmlns="http://www.w3.org/2000/svg">
<path d="M13.7962 3.32328C14.0941 2.4062 15.3916 2.4062 15.6895 3.32328L17.6481 9.3512C17.7814 9.76133 18.1636 10.039 18.5948 10.039H24.9329C25.8972 10.039 26.2981 11.2729 25.518 11.8397L20.3904 15.5652C20.0415 15.8187 19.8955 16.2679 20.0288 16.6781L21.9874 22.706C22.2853 23.6231 21.2357 24.3857 20.4556 23.8189L15.3279 20.0934C14.979 19.84 14.5066 19.84 14.1578 20.0934L9.0301 23.8189C8.24999 24.3857 7.20035 23.6231 7.49832 22.706L9.45691 16.6781C9.59017 16.2679 9.44419 15.8187 9.09531 15.5652L3.96766 11.8397C3.18754 11.2729 3.58847 10.039 4.55274 10.039H10.8909C11.3221 10.039 11.7043 9.76133 11.8376 9.3512L13.7962 3.32328Z" fill="#FF2C06"/>
</svg>
