<svg width="29" height="29" viewBox="0 0 29 29" fill="none" xmlns="http://www.w3.org/2000/svg">
<path d="M13.5532 3.32328C13.8512 2.4062 15.1486 2.4062 15.4466 3.32328L17.4052 9.3512C17.5385 9.76133 17.9207 10.039 18.3519 10.039H24.69C25.6543 10.039 26.0552 11.2729 25.2751 11.8397L20.1474 15.5652C19.7986 15.8187 19.6526 16.2679 19.7858 16.6781L21.7444 22.706C22.0424 23.6231 20.9928 24.3857 20.2127 23.8189L15.085 20.0934C14.7361 19.84 14.2637 19.84 13.9148 20.0934L8.78718 23.8189C8.00707 24.3857 6.95743 23.6231 7.2554 22.706L9.21399 16.6781C9.34725 16.2679 9.20127 15.8187 8.85239 15.5652L3.72474 11.8397C2.94462 11.2729 3.34555 10.039 4.30982 10.039H10.648C11.0792 10.039 11.4614 9.76133 11.5946 9.3512L13.5532 3.32328Z" fill="#FF2C06"/>
</svg>
