<svg width="16" height="16" viewBox="0 0 16 16" fill="none" xmlns="http://www.w3.org/2000/svg">
<path fill-rule="evenodd" clip-rule="evenodd" d="M8.03565 3.03459C6.19955 3.03459 4.7111 4.52304 4.7111 6.35914C4.7111 8.19523 6.19955 9.68368 8.03565 9.68368C9.87175 9.68368 11.3602 8.19523 11.3602 6.35914C11.3602 4.52304 9.87175 3.03459 8.03565 3.03459ZM3.76123 6.35914C3.76123 3.99844 5.67495 2.08472 8.03565 2.08472C10.3963 2.08472 12.3101 3.99844 12.3101 6.35914C12.3101 8.71983 10.3963 10.6336 8.03565 10.6336C5.67495 10.6336 3.76123 8.71983 3.76123 6.35914Z" fill="#FF2C06"/>
<path fill-rule="evenodd" clip-rule="evenodd" d="M8.03585 10.6331C6.95196 10.6331 5.88718 10.9184 4.94853 11.4604C4.00988 12.0024 3.23045 12.7819 2.68859 13.7207C2.55746 13.9478 2.267 14.0257 2.03983 13.8946C1.81266 13.7634 1.7348 13.473 1.86593 13.2458C2.49115 12.1627 3.3905 11.2632 4.47355 10.6378C5.55661 10.0125 6.78521 9.68323 8.03585 9.68323C9.28649 9.68323 10.5151 10.0125 11.5982 10.6378C12.6812 11.2632 13.5806 12.1627 14.2058 13.2458C14.3369 13.473 14.259 13.7634 14.0319 13.8946C13.8047 14.0257 13.5142 13.9478 13.3831 13.7207C12.8413 12.7819 12.0618 12.0024 11.1232 11.4604C10.1845 10.9184 9.11974 10.6331 8.03585 10.6331Z" fill="#FF2C06"/>
</svg>
