<svg width="18" height="18" viewBox="0 0 18 18" fill="none" xmlns="http://www.w3.org/2000/svg">
<path fill-rule="evenodd" clip-rule="evenodd" d="M9 2.90835C6.90592 2.90835 5.20833 4.60593 5.20833 6.70001C5.20833 8.79409 6.90592 10.4917 9 10.4917C11.0941 10.4917 12.7917 8.79409 12.7917 6.70001C12.7917 4.60593 11.0941 2.90835 9 2.90835ZM4.125 6.70001C4.125 4.00762 6.30761 1.82501 9 1.82501C11.6924 1.82501 13.875 4.00762 13.875 6.70001C13.875 9.3924 11.6924 11.575 9 11.575C6.30761 11.575 4.125 9.3924 4.125 6.70001Z" fill="#FF2C06"/>
<path fill-rule="evenodd" clip-rule="evenodd" d="M9.00009 11.5745C7.76391 11.5745 6.54951 11.8999 5.47898 12.518C4.40844 13.1362 3.5195 14.0253 2.9015 15.0959C2.75195 15.355 2.42068 15.4438 2.16159 15.2942C1.9025 15.1447 1.81371 14.8134 1.96326 14.5543C2.67633 13.319 3.70203 12.2931 4.93727 11.5799C6.1725 10.8666 7.57373 10.4911 9.00009 10.4911C10.4265 10.4911 11.8277 10.8666 13.0629 11.5799C14.2982 12.2931 15.3239 13.319 16.0369 14.5543C16.1865 14.8134 16.0977 15.1447 15.8386 15.2942C15.5795 15.4438 15.2482 15.355 15.0987 15.0959C14.4807 14.0253 13.5917 13.1362 12.5212 12.518C11.4507 11.8999 10.2363 11.5745 9.00009 11.5745Z" fill="#FF2C06"/>
</svg>
