<svg width="16" height="16" viewBox="0 0 16 16" fill="none" xmlns="http://www.w3.org/2000/svg">
<path fill-rule="evenodd" clip-rule="evenodd" d="M8.12684 2.84184C6.29074 2.84184 4.80229 4.33029 4.80229 6.16639C4.80229 8.00248 6.29074 9.49093 8.12684 9.49093C9.96293 9.49093 11.4514 8.00248 11.4514 6.16639C11.4514 4.33029 9.96293 2.84184 8.12684 2.84184ZM3.85242 6.16639C3.85242 3.80569 5.76614 1.89197 8.12684 1.89197C10.4875 1.89197 12.4013 3.80569 12.4013 6.16639C12.4013 8.52708 10.4875 10.4408 8.12684 10.4408C5.76614 10.4408 3.85242 8.52708 3.85242 6.16639Z" fill="#FF2C06"/>
<path fill-rule="evenodd" clip-rule="evenodd" d="M8.12679 10.4403C7.04291 10.4403 5.97812 10.7257 5.03947 11.2677C4.10082 11.8097 3.32139 12.5892 2.77953 13.5279C2.6484 13.7551 2.35794 13.8329 2.13077 13.7018C1.9036 13.5707 1.82575 13.2802 1.95688 13.0531C2.5821 11.9699 3.48144 11.0705 4.5645 10.4451C5.64755 9.81971 6.87615 9.49048 8.12679 9.49048C9.37743 9.49048 10.606 9.81971 11.6891 10.4451C12.7722 11.0705 13.6715 11.9699 14.2967 13.0531C14.4278 13.2802 14.35 13.5707 14.1228 13.7018C13.8956 13.8329 13.6052 13.7551 13.4741 13.5279C12.9322 12.5892 12.1528 11.8097 11.2141 11.2677C10.2755 10.7257 9.21068 10.4403 8.12679 10.4403Z" fill="#FF2C06"/>
</svg>
