<svg width="50" height="50" viewBox="0 0 50 50" fill="none" xmlns="http://www.w3.org/2000/svg">
<path d="M25.2438 49.5677C15.4918 43.0639 7.32758 34.9593 0.829102 25.1376C7.32871 15.3417 15.4918 7.20172 25.2482 0.708618C35.0305 7.20003 43.1695 15.3395 49.6882 25.1292C43.211 34.9267 35.0586 43.0572 25.2438 49.5677ZM40.0564 30.1463C41.3184 28.523 42.6236 26.8452 44.0815 24.97C40.7388 21.1432 37.4286 17.353 34.0477 13.4817C30.9256 16.0013 28.0384 18.3313 25.2522 20.5798C22.375 18.2576 19.5304 15.9619 16.7257 13.6988C16.5471 13.782 16.4836 13.7921 16.4505 13.8298C13.2044 17.5363 9.95988 21.2439 6.72216 24.9571C6.6688 25.0184 6.64409 25.1831 6.68621 25.2382C7.9448 26.8958 9.21349 28.5461 10.4462 30.153C12.8657 27.2276 15.2408 24.356 17.5558 21.5576C20.201 24.3532 22.685 26.979 25.2544 29.6948C27.8525 26.9526 30.3477 24.32 32.9699 21.5531C35.3001 24.378 37.6589 27.2388 40.0564 30.1463ZM25.26 44.0979C29.2363 40.6304 33.0424 37.3107 36.8541 33.9866C35.3989 32.0805 34.1213 30.4072 32.9228 28.8373C30.4028 31.1601 27.9625 33.4148 25.5066 35.6515C25.4089 35.7403 25.0882 35.7386 24.9899 35.6487C22.5384 33.408 20.1027 31.15 17.5968 28.8328C16.3831 30.4274 15.0964 32.1176 13.6632 34.0012C17.4912 37.3344 21.2849 40.6371 25.26 44.0979ZM21.2995 10.4241C21.3063 12.6698 23.0709 14.4438 25.2949 14.4421C27.5492 14.4398 29.2835 12.6226 29.2734 10.2734C29.2638 8.15252 27.4414 6.43535 25.2084 6.44378C23.0433 6.45221 21.2928 8.23461 21.2995 10.4241Z" fill="#FF2C06"/>
</svg>
