<svg width="80" height="80" viewBox="0 0 80 80" fill="none" xmlns="http://www.w3.org/2000/svg">
<path d="M39.9756 80C24.0082 69.351 10.6404 56.0808 0 39.9991C10.6422 23.9597 24.0082 10.6316 39.983 0C56.0001 10.6288 69.3265 23.956 80 39.9853C69.3946 56.0274 56.0461 69.3399 39.9756 80ZM64.2293 48.2001C66.2956 45.5423 68.4327 42.7951 70.8199 39.7247C65.3466 33.4588 59.9267 27.2528 54.3908 20.9142C49.2789 25.0396 44.5514 28.8547 39.9894 32.5364C35.2785 28.7341 30.6208 24.9751 26.0285 21.2696C25.7361 21.4058 25.6322 21.4224 25.5779 21.4841C20.2628 27.5529 14.9504 33.6236 9.64907 39.7036C9.56171 39.8039 9.52125 40.0737 9.59021 40.1639C11.651 42.8779 13.7283 45.58 15.7467 48.2112C19.7083 43.4211 23.5971 38.7194 27.3876 34.1374C31.7188 38.7148 35.7861 43.0142 39.9931 47.4609C44.247 42.9709 48.3327 38.6605 52.6262 34.13C56.4415 38.7553 60.3037 43.4395 64.2293 48.2001ZM40.0023 71.044C46.5129 65.3664 52.7448 59.931 58.9859 54.4881C56.6033 51.3671 54.5113 48.6273 52.5489 46.0569C48.4228 49.8601 44.4273 53.5518 40.406 57.2141C40.246 57.3596 39.7209 57.3568 39.56 57.2095C35.5461 53.5408 31.5579 49.8435 27.4547 46.0495C25.4675 48.6605 23.3608 51.4279 21.0141 54.5121C27.2819 59.9696 33.4936 65.3775 40.0023 71.044ZM33.5175 15.9078C33.5285 19.5848 36.4178 22.4894 40.0593 22.4867C43.7505 22.483 46.5901 19.5075 46.5736 15.661C46.5579 12.1884 43.5739 9.37673 39.9177 9.39054C36.3728 9.40435 33.5064 12.3228 33.5175 15.9078Z" fill="#FF2C06"/>
</svg>
